<?xml version="1.0" encoding="UTF-8"?>
<svg version="1.1" xmlns="http://www.w3.org/2000/svg" width="512" height="512">
<path d="M0 0 C26.16148235 22.45479078 41.45071182 53.02488138 44.94018555 87.33618164 C47.24502684 117.69103477 41.51582926 146.47161477 28.12109375 173.71875 C27.80946289 174.36505371 27.49783203 175.01135742 27.17675781 175.67724609 C19.62750242 191.19515996 9.59355168 204.98578744 -2.47802734 217.28710938 C-3.8010911 218.63922611 -5.10058148 220.01429397 -6.3984375 221.390625 C-32.71425876 248.76928234 -69.04372004 261.29393408 -104.08930969 273.36573792 C-148.23437731 287.95582555 -148.23437731 287.95582555 -182.87890625 317.71875 C-183.42160156 318.42257812 -183.96429688 319.12640625 -184.5234375 319.8515625 C-185.88847395 322.73898831 -186.06850794 324.31575391 -186.234375 327.44140625 C-186.68355449 333.35287063 -189.0085907 337.25724922 -192.19140625 342.15625 C-192.73120117 343.02040527 -193.27099609 343.88456055 -193.82714844 344.77490234 C-195.49361032 347.43436635 -197.18442557 350.07707507 -198.87890625 352.71875 C-199.84798128 354.25287964 -200.81549957 355.78799406 -201.78125 357.32421875 C-203.21727223 359.60583258 -204.65562152 361.88578934 -206.1015625 364.16113281 C-210.3641861 370.86930008 -214.5345523 377.63213613 -218.69140625 384.40625 C-223.41288372 392.09931443 -228.15142189 399.78066546 -232.93969727 407.43237305 C-234.21731093 409.47401351 -235.49259802 411.51711203 -236.76538086 413.56176758 C-239.31759864 417.65792383 -241.87373776 421.74313175 -244.55859375 425.75390625 C-248.28933185 431.42967329 -250.76939444 435.68900264 -250.74609375 442.59765625 C-250.90074029 445.06745254 -251.72906407 446.55352528 -252.87890625 448.71875 C-252.28207031 448.6686377 -251.68523437 448.61852539 -251.0703125 448.56689453 C-177.52408696 442.54277019 -99.38209975 439.33747137 -26.44140625 452.71875 C-25.66772705 452.86038574 -24.89404785 453.00202148 -24.09692383 453.14794922 C-18.04777834 454.40129537 -11.32430924 456.27334701 -6.87890625 460.71875 C-7.04370117 462.71313477 -7.04370117 462.71313477 -7.87890625 464.71875 C-13.94961798 468.49091118 -20.10020316 469.95443325 -27.06640625 471.28125 C-28.15445557 471.49177002 -29.24250488 471.70229004 -30.36352539 471.91918945 C-68.22571376 478.91935114 -107.21958915 479.06375498 -145.59179688 478.97949219 C-150.82834164 478.96809866 -156.06468305 478.974883 -161.30122089 478.98636913 C-191.86166837 479.04327695 -222.30025077 478.42474207 -252.69140625 474.90625 C-253.42699768 474.8232666 -254.16258911 474.7402832 -254.92047119 474.65478516 C-264.11978036 473.60436461 -273.22721829 472.3250588 -282.25390625 470.21875 C-283.06706299 470.02949951 -283.88021973 469.84024902 -284.71801758 469.64526367 C-289.4789143 468.41042063 -292.94037675 466.66952131 -296.87890625 463.71875 C-296.53276489 461.20922511 -296.12732324 459.96716699 -294.31640625 458.15625 C-292.11813265 456.85983224 -290.11173438 456.00306569 -287.7265625 455.12890625 C-287.00605713 454.86343994 -286.28555176 454.59797363 -285.54321289 454.32446289 C-284.7193811 454.02463501 -284.7193811 454.02463501 -283.87890625 453.71875 C-284.65584839 453.22846313 -284.65584839 453.22846313 -285.44848633 452.72827148 C-286.17447021 452.27009033 -286.9004541 451.81190918 -287.6484375 451.33984375 C-288.45015381 450.83404785 -289.25187012 450.32825195 -290.07788086 449.80712891 C-291.82584107 448.70299935 -293.57274345 447.59719343 -295.31860352 446.48974609 C-300.85197671 442.98023311 -300.85197671 442.98023311 -306.44921875 439.57421875 C-312.15697713 436.12934551 -316.54427009 433.4077717 -318.46484375 426.66015625 C-319.75196595 419.65384014 -317.39028237 414.75766417 -313.7421875 408.890625 C-310.67826457 404.69681687 -307.68854336 404.07996805 -302.87890625 402.71875 C-302.16535549 401.0716108 -301.51211295 399.3984141 -300.87890625 397.71875 C-299.27177198 394.92599333 -297.50280087 392.23688782 -295.75390625 389.53125 C-290.77801825 381.74586261 -285.89587131 373.90828213 -281.06640625 366.03125 C-275.27321373 356.59128347 -269.43718927 347.17999932 -263.54614258 337.80078125 C-260.17724811 332.42836316 -256.8462026 327.03565239 -253.55859375 321.61328125 C-252.83278387 320.41986009 -252.10687318 319.22650024 -251.38085938 318.03320312 C-249.99417816 315.75380056 -248.61688614 313.46954982 -247.24414062 311.18164062 C-239.79803279 298.93947565 -239.79803279 298.93947565 -233.44140625 296.28125 C-226.88759976 292.75447396 -224.87918456 283.04652415 -222.875 276.37890625 C-216.42698406 251.67708674 -219.90559681 224.85445421 -223.06555176 199.89849854 C-223.8185269 193.91848353 -224.53246711 187.93356804 -225.25 181.94921875 C-225.47696312 180.06552078 -225.47696312 180.06552078 -225.70851135 178.14376831 C-226.82569278 168.67175728 -227.58375458 159.25025932 -227.87890625 149.71875 C-227.91218018 148.74446045 -227.9454541 147.7701709 -227.97973633 146.76635742 C-229.02813999 106.9842041 -217.48572202 68.275274 -192.87890625 36.71875 C-191.84056641 35.34783203 -191.84056641 35.34783203 -190.78125 33.94921875 C-165.93570248 2.23051042 -129.93255793 -19.44709079 -89.83203125 -24.77734375 C-57.93004463 -28.38061594 -25.02010993 -20.66298379 0 0 Z M-78.828125 23.48632812 C-79.29863281 24.40865234 -79.76914062 25.33097656 -80.25390625 26.28125 C-80.74761719 27.17650391 -81.24132812 28.07175781 -81.75 28.99414062 C-82.71083069 30.74285249 -83.6564248 32.50004153 -84.58496094 34.26611328 C-86.27214409 37.4641212 -88.06759913 40.58973841 -89.87890625 43.71875 C-86.90242104 45.61881763 -83.92222856 47.51299503 -80.94140625 49.40625 C-80.11060547 49.93669922 -79.27980469 50.46714844 -78.42382812 51.01367188 C-73.00947453 54.44767824 -67.52089684 57.67301328 -61.87890625 60.71875 C-57.06983695 54.18948484 -52.80029229 47.41937568 -48.62890625 40.46875 C-48.10973633 39.60540039 -47.59056641 38.74205078 -47.05566406 37.85253906 C-44.4882288 33.54571222 -42.03834717 29.24470151 -39.87890625 24.71875 C-44.9662449 21.75113579 -50.06299601 19.94228926 -55.75390625 18.46875 C-56.72457031 18.20626465 -56.72457031 18.20626465 -57.71484375 17.93847656 C-59.76369648 17.43337745 -61.79529991 17.05258619 -63.87890625 16.71875 C-64.7076123 16.57236084 -65.53631836 16.42597168 -66.39013672 16.27514648 C-73.30582273 15.57396013 -75.49057652 17.56896854 -78.828125 23.48632812 Z M-100.19140625 20.03125 C-100.92552734 20.24458984 -101.65964844 20.45792969 -102.41601562 20.67773438 C-107.06779959 22.06047406 -111.4541072 23.72554462 -115.87890625 25.71875 C-115.87890625 26.37875 -115.87890625 27.03875 -115.87890625 27.71875 C-113.40480406 29.3504793 -110.94230966 30.86575164 -108.37890625 32.34375 C-107.66347656 32.76398438 -106.94804687 33.18421875 -106.2109375 33.6171875 C-104.43744592 34.65763589 -102.65865359 35.68903904 -100.87890625 36.71875 C-96.81076403 32.99258821 -94.18865583 29.23775729 -91.56640625 24.40625 C-91.20740234 23.76107422 -90.84839844 23.11589844 -90.47851562 22.45117188 C-89.6044515 20.87785645 -88.74059842 19.29887535 -87.87890625 17.71875 C-92.31343436 17.71875 -95.99623688 18.76580998 -100.19140625 20.03125 Z M-29.87890625 31.71875 C-37.24682936 43.36396043 -44.58839902 55.02490543 -51.87890625 66.71875 C-47.04295784 70.87560778 -41.65888074 74.11825492 -36.25390625 77.46875 C-35.3 78.07074219 -34.34609375 78.67273438 -33.36328125 79.29296875 C-32.44804687 79.86144531 -31.5328125 80.42992187 -30.58984375 81.015625 C-29.75759277 81.53479492 -28.9253418 82.05396484 -28.06787109 82.58886719 C-25.84516576 83.94808661 -25.84516576 83.94808661 -22.87890625 83.71875 C-21.05469376 81.5110393 -21.05469376 81.5110393 -19.33984375 78.609375 C-18.67726563 77.54460937 -18.0146875 76.47984375 -17.33203125 75.3828125 C-16.64625 74.25617188 -15.96046875 73.12953125 -15.25390625 71.96875 C-14.56039062 70.85757813 -13.866875 69.74640625 -13.15234375 68.6015625 C-9.03621401 62.5583727 -9.03621401 62.5583727 -6.87890625 55.71875 C-11.40766893 47.12690718 -18.33549486 38.81601517 -25.87890625 32.71875 C-27.96083446 32.09270571 -27.96083446 32.09270571 -29.87890625 31.71875 Z M-132.10546875 35.0546875 C-132.89695312 35.72757813 -133.6884375 36.40046875 -134.50390625 37.09375 C-135.38175781 37.83625 -136.25960937 38.57875 -137.1640625 39.34375 C-138.50791016 40.519375 -138.50791016 40.519375 -139.87890625 41.71875 C-140.72324219 42.440625 -141.56757813 43.1625 -142.4375 43.90625 C-153.43446334 52.79886632 -153.43446334 52.79886632 -159.87890625 64.71875 C-149.65084937 71.2390559 -139.43367917 77.73560527 -128.87890625 83.71875 C-124.13661042 76.70068765 -119.5731401 69.57745283 -115.06640625 62.40625 C-114.38642578 61.33568359 -113.70644531 60.26511719 -113.00585938 59.16210938 C-112.35939453 58.13279297 -111.71292969 57.10347656 -111.046875 56.04296875 C-110.16938599 54.6521106 -110.16938599 54.6521106 -109.27416992 53.2331543 C-108.03377842 50.9978451 -107.33113076 49.21530713 -106.87890625 46.71875 C-109.95654726 44.73062252 -113.04193377 42.75485142 -116.12890625 40.78125 C-117.43794922 39.93530273 -117.43794922 39.93530273 -118.7734375 39.07226562 C-119.61777344 38.53408203 -120.46210938 37.99589844 -121.33203125 37.44140625 C-122.10708008 36.94390869 -122.88212891 36.44641113 -123.68066406 35.93383789 C-127.86649641 33.58897213 -127.86649641 33.58897213 -132.10546875 35.0546875 Z M-96.87890625 53.71875 C-98.15601413 55.39635466 -98.15601413 55.39635466 -99.3828125 57.6015625 C-100.11721558 58.84873047 -100.11721558 58.84873047 -100.86645508 60.12109375 C-101.38618896 61.01957031 -101.90592285 61.91804688 -102.44140625 62.84375 C-108.67544884 73.48903784 -108.67544884 73.48903784 -111.70703125 78.0234375 C-112.12911865 78.65491699 -112.55120605 79.28639648 -112.98608398 79.93701172 C-114.12488987 81.62042378 -115.27689389 83.29488563 -116.4296875 84.96875 C-118.05705982 87.49040485 -118.05705982 87.49040485 -117.78125 89.67700195 C-116.47822198 92.62538488 -114.6358842 93.4910806 -111.890625 95.13671875 C-110.87419922 95.75095703 -109.85777344 96.36519531 -108.81054688 96.99804688 C-107.73998047 97.62775391 -106.66941406 98.25746094 -105.56640625 98.90625 C-104.50744141 99.54755859 -103.44847656 100.18886719 -102.35742188 100.84960938 C-96.44229511 104.56051971 -96.44229511 104.56051971 -89.87890625 106.71875 C-87.70936993 103.19951992 -85.54062648 99.67980278 -83.37255859 96.15966797 C-82.63774053 94.96683149 -81.90272076 93.77411924 -81.16748047 92.58154297 C-76.69170851 85.321389 -72.24487437 78.04561928 -67.87890625 70.71875 C-68.4836377 70.34588867 -69.08836914 69.97302734 -69.71142578 69.58886719 C-72.47627163 67.88327015 -75.24009587 66.1760244 -78.00390625 64.46875 C-78.95523438 63.88222656 -79.9065625 63.29570313 -80.88671875 62.69140625 C-88.81650014 57.79036081 -88.81650014 57.79036081 -92.43359375 55.296875 C-94.67392352 53.53800028 -94.67392352 53.53800028 -96.87890625 53.71875 Z M-1.87890625 71.71875 C-3.72336979 74.48232364 -5.55248868 77.25572355 -7.37890625 80.03125 C-7.90355469 80.81693359 -8.42820312 81.60261719 -8.96875 82.41210938 C-9.46503906 83.16943359 -9.96132813 83.92675781 -10.47265625 84.70703125 C-11.16391602 85.75177612 -11.16391602 85.75177612 -11.86914062 86.81762695 C-13.11344655 88.80155294 -13.11344655 88.80155294 -12.87890625 91.71875 C-10.42349155 93.42956241 -8.03306113 94.93302461 -5.44140625 96.40625 C-4.38083008 97.02983398 -4.38083008 97.02983398 -3.29882812 97.66601562 C-0.27019039 99.77387356 -0.27019039 99.77387356 3.12109375 100.71875 C3.58902148 91.41218746 2.62269423 82.69238107 0.12109375 73.71875 C-0.53890625 73.05875 -1.19890625 72.39875 -1.87890625 71.71875 Z M-167.87890625 73.71875 C-175.33759527 87.95462347 -182.46679411 102.65916129 -184.87890625 118.71875 C-185.23855469 120.4203125 -185.23855469 120.4203125 -185.60546875 122.15625 C-184.72092399 126.4933727 -183.86024231 126.85304425 -180.28515625 129.24609375 C-178.33168544 130.40887399 -176.36200149 131.54474681 -174.37890625 132.65625 C-173.37730469 133.24470703 -172.37570313 133.83316406 -171.34375 134.43945312 C-168.86796168 135.88955771 -166.38071646 137.31417494 -163.87890625 138.71875 C-161.21353065 136.18968811 -159.13321791 133.79386893 -157.28515625 130.62109375 C-156.81754883 129.82823975 -156.34994141 129.03538574 -155.86816406 128.21850586 C-155.37670898 127.37296143 -154.88525391 126.52741699 -154.37890625 125.65625 C-149.61246823 117.55673768 -144.68426695 109.58799047 -139.53710938 101.72436523 C-139.05693359 100.97872314 -138.57675781 100.23308105 -138.08203125 99.46484375 C-137.65567383 98.81185303 -137.22931641 98.1588623 -136.79003906 97.48608398 C-135.64979124 95.6057289 -135.64979124 95.6057289 -135.87890625 92.71875 C-137.58217711 91.28497692 -137.58217711 91.28497692 -139.8671875 90.046875 C-140.71434326 89.55026367 -141.56149902 89.05365234 -142.43432617 88.54199219 C-143.3441626 88.02282227 -144.25399902 87.50365234 -145.19140625 86.96875 C-147.02802367 85.89699764 -148.86396588 84.82408733 -150.69921875 83.75 C-151.5902832 83.23179688 -152.48134766 82.71359375 -153.39941406 82.1796875 C-157.36731215 79.84176882 -161.22255083 77.34654048 -165.078125 74.828125 C-166.66829515 73.63133174 -166.66829515 73.63133174 -167.87890625 73.71875 Z M-58.87890625 77.71875 C-60.15601413 79.39635466 -60.15601413 79.39635466 -61.3828125 81.6015625 C-62.11709473 82.84885132 -62.11709473 82.84885132 -62.86621094 84.12133789 C-63.38602539 85.01973389 -63.90583984 85.91812988 -64.44140625 86.84375 C-68.87494615 94.39810945 -73.45367415 101.79211845 -78.33203125 109.06640625 C-80.13080221 111.63891851 -80.13080221 111.63891851 -79.87890625 114.71875 C-77.78459651 116.43013132 -77.78459651 116.43013132 -75.0234375 118.00390625 C-74.00830078 118.61685547 -72.99316406 119.22980469 -71.94726562 119.86132812 C-70.87283203 120.49490234 -69.79839844 121.12847656 -68.69140625 121.78125 C-67.63630859 122.41869141 -66.58121094 123.05613281 -65.49414062 123.71289062 C-61.03351793 126.3836357 -56.76249234 128.89909274 -51.87890625 130.71875 C-51.4914624 130.0796167 -51.10401855 129.4404834 -50.70483398 128.78198242 C-48.90992095 125.82265724 -47.11317186 122.86445072 -45.31640625 119.90625 C-44.70732422 118.90142578 -44.09824219 117.89660156 -43.47070312 116.86132812 C-39.804133 110.82797728 -36.05811816 104.86906525 -32.14868164 98.98950195 C-30.63487465 96.71595615 -30.63487465 96.71595615 -30.87890625 93.71875 C-32.77792746 92.12297139 -32.77792746 92.12297139 -35.296875 90.6875 C-36.68422852 89.84251953 -36.68422852 89.84251953 -38.09960938 88.98046875 C-39.07865234 88.39910156 -40.05769531 87.81773438 -41.06640625 87.21875 C-42.02611328 86.63738281 -42.98582031 86.05601563 -43.97460938 85.45703125 C-46.60326828 83.86710192 -49.23955492 82.29084382 -51.87890625 80.71875 C-52.76747314 80.16123047 -53.65604004 79.60371094 -54.5715332 79.02929688 C-56.72648609 77.55412393 -56.72648609 77.55412393 -58.87890625 77.71875 Z M-125.87890625 100.71875 C-127.30198452 102.60684499 -127.30198452 102.60684499 -128.71484375 105.08203125 C-129.27921143 106.02336914 -129.8435791 106.96470703 -130.42504883 107.93457031 C-131.02857178 108.95647461 -131.63209473 109.97837891 -132.25390625 111.03125 C-133.51414107 113.1376073 -134.77588622 115.24306162 -136.0390625 117.34765625 C-136.67730957 118.41258301 -137.31555664 119.47750977 -137.97314453 120.57470703 C-141.30020742 126.06355098 -144.75944991 131.46807138 -148.23388672 136.86450195 C-148.70068848 137.59499756 -149.16749023 138.32549316 -149.6484375 139.078125 C-150.05682861 139.71202148 -150.46521973 140.34591797 -150.88598633 140.99902344 C-152.03777626 142.86120093 -152.03777626 142.86120093 -152.87890625 145.71875 C-152.01724854 146.23260254 -152.01724854 146.23260254 -151.13818359 146.75683594 C-148.5091426 148.32589083 -145.88151641 149.89730025 -143.25390625 151.46875 C-142.35027344 152.00757813 -141.44664062 152.54640625 -140.515625 153.1015625 C-132.97406884 157.61548662 -132.97406884 157.61548662 -129.41796875 160.109375 C-126.95761931 161.98643059 -126.95761931 161.98643059 -123.87890625 161.71875 C-122.3318269 159.85436603 -122.3318269 159.85436603 -120.9453125 157.35546875 C-120.38400635 156.41421143 -119.8227002 155.4729541 -119.24438477 154.50317383 C-118.64940186 153.48118896 -118.05441895 152.4592041 -117.44140625 151.40625 C-116.19329095 149.29836207 -114.94325712 147.19160907 -113.69140625 145.0859375 C-113.05976563 144.02084961 -112.428125 142.95576172 -111.77734375 141.85839844 C-109.98911339 138.9010113 -108.14348935 135.99498662 -106.25390625 133.1015625 C-105.69501709 132.24344971 -105.13612793 131.38533691 -104.56030273 130.5012207 C-103.49878699 128.88165279 -102.4282645 127.26794476 -101.34790039 125.66088867 C-100.87473389 124.93361572 -100.40156738 124.20634277 -99.9140625 123.45703125 C-99.49519775 122.82837158 -99.07633301 122.19971191 -98.64477539 121.55200195 C-97.73011503 119.73351763 -97.73011503 119.73351763 -97.9831543 117.66699219 C-99.20530386 115.00884187 -100.65504008 114.2649938 -103.17578125 112.80859375 C-104.490625 112.03612305 -104.490625 112.03612305 -105.83203125 111.24804688 C-106.755 110.72275391 -107.67796875 110.19746094 -108.62890625 109.65625 C-109.99015625 108.86250977 -109.99015625 108.86250977 -111.37890625 108.05273438 C-113.07966565 107.06186797 -114.7834577 106.07617544 -116.49121094 105.09741211 C-118.19814042 104.11182614 -119.88439909 103.09008771 -121.55566406 102.04516602 C-123.7225114 100.55347847 -123.7225114 100.55347847 -125.87890625 100.71875 Z M-20.87890625 101.71875 C-22.73663586 104.05730437 -22.73663586 104.05730437 -24.49609375 107.125 C-24.83512726 107.68312378 -25.17416077 108.24124756 -25.52346802 108.81628418 C-26.61063756 110.61108976 -27.68244215 112.41453339 -28.75390625 114.21875 C-29.46773567 115.40425718 -30.18256868 116.58916069 -30.8984375 117.7734375 C-32.2773685 120.05527886 -33.64647913 122.34206736 -35.01074219 124.6328125 C-36.60017616 127.25832811 -38.25458063 129.81723244 -39.94921875 132.375 C-40.90441406 134.03015625 -40.90441406 134.03015625 -41.87890625 135.71875 C-40.59332025 139.57550799 -39.1645158 140.07580794 -35.7421875 142.1875 C-34.68966797 142.84105469 -33.63714844 143.49460938 -32.55273438 144.16796875 C-31.44349609 144.84472656 -30.33425781 145.52148438 -29.19140625 146.21875 C-27.55655273 147.23388672 -27.55655273 147.23388672 -25.88867188 148.26953125 C-20.96798401 151.3064013 -16.08219643 154.18718532 -10.87890625 156.71875 C-3.66051443 143.59251011 1.76078762 129.88436263 2.12109375 114.71875 C-8.51944214 105.9513063 -8.51944214 105.9513063 -20.87890625 101.71875 Z M-86.87890625 123.71875 C-92.59444948 132.51665936 -98.19396443 141.38426987 -103.75390625 150.28125 C-104.40818604 151.32796875 -105.06246582 152.3746875 -105.73657227 153.453125 C-108.31394165 157.58208558 -108.31394165 157.58208558 -110.87890625 161.71875 C-111.44109863 162.59007568 -112.00329102 163.46140137 -112.58251953 164.35913086 C-114.11966544 166.70825313 -114.11966544 166.70825313 -113.87890625 169.71875 C-111.44224522 171.65859485 -111.44224522 171.65859485 -108.26171875 173.51171875 C-107.68936493 173.86261063 -107.11701111 174.2135025 -106.52731323 174.57502747 C-105.31478365 175.31548346 -104.09902802 176.05067828 -102.88037109 176.78100586 C-101.01180158 177.90151547 -99.15378636 179.03803102 -97.296875 180.17773438 C-91.91864804 184.01343774 -91.91864804 184.01343774 -85.87890625 185.71875 C-84.6510982 184.12354243 -84.6510982 184.12354243 -83.48046875 182.01171875 C-83.00665771 181.20621582 -82.53284668 180.40071289 -82.04467773 179.57080078 C-81.28199585 178.25184814 -81.28199585 178.25184814 -80.50390625 176.90625 C-79.42651634 175.07301998 -78.34703183 173.24101959 -77.265625 171.41015625 C-76.7092334 170.4680127 -76.1528418 169.52586914 -75.57958984 168.55517578 C-72.42791069 163.2987577 -69.11740871 158.14276205 -65.80126953 152.98901367 C-65.33060059 152.25271729 -64.85993164 151.5164209 -64.375 150.7578125 C-63.96435303 150.12053223 -63.55370605 149.48325195 -63.13061523 148.82666016 C-61.56640072 146.19248263 -60.22460768 143.46979885 -58.87890625 140.71875 C-62.54442633 138.45734527 -66.21061887 136.19703604 -69.87744141 133.93774414 C-71.12502331 133.16884023 -72.37242023 132.3996361 -73.61962891 131.63012695 C-75.41129913 130.52476478 -77.20362956 129.42048033 -78.99609375 128.31640625 C-80.07487793 127.65133057 -81.15366211 126.98625488 -82.26513672 126.30102539 C-84.74224829 124.75348846 -84.74224829 124.75348846 -86.87890625 123.71875 Z M-185.87890625 138.71875 C-186.35705077 148.2285133 -186.32950515 160.54285165 -180.87890625 168.71875 C-178.97771397 165.81838446 -177.11284001 162.89634617 -175.25390625 159.96875 C-174.7125 159.14375 -174.17109375 158.31875 -173.61328125 157.46875 C-173.11054688 156.66953125 -172.6078125 155.8703125 -172.08984375 155.046875 C-171.61853027 154.3137207 -171.1472168 153.58056641 -170.66162109 152.82519531 C-169.63616095 150.72588944 -169.63616095 150.72588944 -170.55297852 148.58203125 C-172.59176617 145.71699214 -175.45688921 144.20356077 -178.44140625 142.46875 C-179.04404297 142.10523438 -179.64667969 141.74171875 -180.26757812 141.3671875 C-182.89960213 139.515188 -182.89960213 139.515188 -185.87890625 138.71875 Z M-48.87890625 147.71875 C-53.77436497 154.33932467 -57.95981874 161.55095974 -62.31640625 168.53125 C-62.94611328 169.53478516 -63.57582031 170.53832031 -64.22460938 171.57226562 C-68.5808974 178.5432219 -72.7756645 185.596067 -76.87890625 192.71875 C-73.50191854 194.95699123 -70.09983247 197.15374079 -66.69140625 199.34375 C-65.2518457 200.29894531 -65.2518457 200.29894531 -63.78320312 201.2734375 C-62.85185547 201.86640625 -61.92050781 202.459375 -60.9609375 203.0703125 C-60.10733643 203.62541504 -59.25373535 204.18051758 -58.37426758 204.75244141 C-55.87574585 206.00580718 -55.87574585 206.00580718 -53.19555664 204.97290039 C-38.33930744 196.93026659 -25.6696091 181.84581448 -16.87890625 167.71875 C-20.43452233 164.76694874 -24.08362867 162.24680256 -28.01953125 159.828125 C-28.58718201 159.47864807 -29.15483276 159.12917114 -29.73968506 158.769104 C-30.92865802 158.03814343 -32.1186345 157.30881286 -33.30957031 156.58105469 C-35.14002695 155.46195103 -36.96668534 154.33683584 -38.79296875 153.2109375 C-43.61090955 149.59171461 -43.61090955 149.59171461 -48.87890625 147.71875 Z M-159.87890625 155.71875 C-161.98364559 159.1142287 -164.08759627 162.51019541 -166.19140625 165.90625 C-167.08375977 167.34581055 -167.08375977 167.34581055 -167.99414062 168.81445312 C-168.57099609 169.74580078 -169.14785156 170.67714844 -169.7421875 171.63671875 C-170.27110596 172.49031982 -170.80002441 173.3439209 -171.3449707 174.22338867 C-171.85116943 175.04685791 -172.35736816 175.87032715 -172.87890625 176.71875 C-173.45084717 177.59724609 -174.02278809 178.47574219 -174.61206055 179.38085938 C-176.18489581 181.6625342 -176.18489581 181.6625342 -175.28515625 184.20703125 C-170.45682781 192.83096232 -163.86195566 201.79934602 -155.87890625 207.71875 C-153.8762689 207.79674299 -153.8762689 207.79674299 -151.87890625 206.71875 C-149.90291775 204.26225232 -149.90291775 204.26225232 -148.12890625 201.14453125 C-147.78891602 200.58307907 -147.44892578 200.02162689 -147.09863281 199.44316101 C-146.01361722 197.64596383 -144.94597405 195.83914984 -143.87890625 194.03125 C-142.80812801 192.24363985 -141.73390412 190.45813712 -140.65917969 188.67289734 C-139.68001832 187.04215571 -138.70892291 185.40657896 -137.73828125 183.77075195 C-136.44190814 181.64286852 -135.07028826 179.55980746 -133.64453125 177.51635742 C-131.6120486 174.84728082 -131.6120486 174.84728082 -131.87890625 171.71875 C-134.08661695 169.89453751 -134.08661695 169.89453751 -136.98828125 168.1796875 C-138.05304688 167.51710937 -139.1178125 166.85453125 -140.21484375 166.171875 C-141.34148437 165.48609375 -142.468125 164.8003125 -143.62890625 164.09375 C-144.74007812 163.40023437 -145.85125 162.70671875 -146.99609375 161.9921875 C-153.07524437 158.00689625 -153.07524437 158.00689625 -159.87890625 155.71875 Z M-121.87890625 179.71875 C-123.27599824 181.2565483 -123.27599824 181.2565483 -124.48046875 183.34765625 C-124.96676758 184.12890869 -125.45306641 184.91016113 -125.95410156 185.71508789 C-126.46553711 186.56192139 -126.97697266 187.40875488 -127.50390625 188.28125 C-128.03081055 189.1364624 -128.55771484 189.9916748 -129.10058594 190.87280273 C-130.70374058 193.48192964 -132.29151902 196.10000948 -133.87890625 198.71875 C-134.80777988 200.22966732 -135.73741314 201.74011801 -136.66796875 203.25 C-137.48931661 204.5931174 -138.30969031 205.9368312 -139.12890625 207.28125 C-139.51127441 207.90523682 -139.89364258 208.52922363 -140.28759766 209.17211914 C-142.25899651 212.22866348 -142.25899651 212.22866348 -142.87890625 215.71875 C-131.51999522 220.25538825 -122.08058462 222.94597704 -109.87890625 223.71875 C-107.97883862 220.74226479 -106.08466122 217.76207231 -104.19140625 214.78125 C-103.66095703 213.95044922 -103.13050781 213.11964844 -102.58398438 212.26367188 C-99.14997801 206.84931828 -95.92464297 201.36074059 -92.87890625 195.71875 C-93.45334473 195.37618164 -94.0277832 195.03361328 -94.61962891 194.68066406 C-97.2486699 193.11160917 -99.87629609 191.54019975 -102.50390625 189.96875 C-103.40753906 189.42992187 -104.31117188 188.89109375 -105.2421875 188.3359375 C-112.78374366 183.82201338 -112.78374366 183.82201338 -116.33984375 181.328125 C-118.80019319 179.45106941 -118.80019319 179.45106941 -121.87890625 179.71875 Z M-82.87890625 202.71875 C-87.50541649 208.67600378 -91.38223408 215.0476796 -94.87890625 221.71875 C-89.33770679 221.37949289 -84.37988562 220.04174169 -79.12890625 218.28125 C-78.47913818 218.06380127 -77.82937012 217.84635254 -77.15991211 217.62231445 C-73.94633398 216.51791934 -70.86764877 215.34142586 -67.87890625 213.71875 C-69.22892791 209.66868501 -71.87557396 208.58787713 -75.37890625 206.53125 C-75.98605469 206.16322266 -76.59320313 205.79519531 -77.21875 205.41601562 C-79.87257695 203.5328943 -79.87257695 203.5328943 -82.87890625 202.71875 Z M-184.87890625 237.71875 C-184.93425537 238.48429199 -184.98960449 239.24983398 -185.04663086 240.03857422 C-185.30182134 243.55706937 -185.55910019 247.07540895 -185.81640625 250.59375 C-185.90341797 251.79773438 -185.99042969 253.00171875 -186.08007812 254.2421875 C-186.58173615 261.07960057 -187.14761331 267.90187934 -187.87890625 274.71875 C-182.37870032 271.78881703 -177.09823105 268.61819714 -171.87890625 265.21875 C-166.66159435 261.8206139 -161.39257772 258.62145006 -155.87890625 255.71875 C-158.87871401 253.29909374 -161.88352983 251.70049561 -165.37890625 250.09375 C-171.3804142 247.17050627 -176.35756878 243.57987906 -181.578125 239.4765625 C-183.52877267 237.61756675 -183.52877267 237.61756675 -184.87890625 237.71875 Z " fill="#FC8914" transform="translate(407.87890625,33.28125)"/>
<path d="M0 0 C26.16148235 22.45479078 41.45071182 53.02488138 44.94018555 87.33618164 C47.24502684 117.69103477 41.51582926 146.47161477 28.12109375 173.71875 C27.80946289 174.36505371 27.49783203 175.01135742 27.17675781 175.67724609 C19.62750242 191.19515996 9.59355168 204.98578744 -2.47802734 217.28710938 C-3.8010911 218.63922611 -5.10058148 220.01429397 -6.3984375 221.390625 C-32.71425876 248.76928234 -69.04372004 261.29393408 -104.08930969 273.36573792 C-148.23437731 287.95582555 -148.23437731 287.95582555 -182.87890625 317.71875 C-183.42160156 318.42257812 -183.96429688 319.12640625 -184.5234375 319.8515625 C-185.88847395 322.73898831 -186.06850794 324.31575391 -186.234375 327.44140625 C-186.68355449 333.35287063 -189.0085907 337.25724922 -192.19140625 342.15625 C-192.73120117 343.02040527 -193.27099609 343.88456055 -193.82714844 344.77490234 C-195.49361032 347.43436635 -197.18442557 350.07707507 -198.87890625 352.71875 C-199.84798128 354.25287964 -200.81549957 355.78799406 -201.78125 357.32421875 C-203.21727223 359.60583258 -204.65562152 361.88578934 -206.1015625 364.16113281 C-210.3641861 370.86930008 -214.5345523 377.63213613 -218.69140625 384.40625 C-223.41288372 392.09931443 -228.15142189 399.78066546 -232.93969727 407.43237305 C-234.21731093 409.47401351 -235.49259802 411.51711203 -236.76538086 413.56176758 C-239.31759864 417.65792383 -241.87373776 421.74313175 -244.55859375 425.75390625 C-248.28933185 431.42967329 -250.76939444 435.68900264 -250.74609375 442.59765625 C-250.90074029 445.06745254 -251.72906407 446.55352528 -252.87890625 448.71875 C-252.28207031 448.6686377 -251.68523437 448.61852539 -251.0703125 448.56689453 C-177.52408696 442.54277019 -99.38209975 439.33747137 -26.44140625 452.71875 C-25.66772705 452.86038574 -24.89404785 453.00202148 -24.09692383 453.14794922 C-18.04777834 454.40129537 -11.32430924 456.27334701 -6.87890625 460.71875 C-7.04370117 462.71313477 -7.04370117 462.71313477 -7.87890625 464.71875 C-13.94961798 468.49091118 -20.10020316 469.95443325 -27.06640625 471.28125 C-28.15445557 471.49177002 -29.24250488 471.70229004 -30.36352539 471.91918945 C-68.22571376 478.91935114 -107.21958915 479.06375498 -145.59179688 478.97949219 C-150.82834164 478.96809866 -156.06468305 478.974883 -161.30122089 478.98636913 C-191.86166837 479.04327695 -222.30025077 478.42474207 -252.69140625 474.90625 C-253.42699768 474.8232666 -254.16258911 474.7402832 -254.92047119 474.65478516 C-264.11978036 473.60436461 -273.22721829 472.3250588 -282.25390625 470.21875 C-283.06706299 470.02949951 -283.88021973 469.84024902 -284.71801758 469.64526367 C-289.4789143 468.41042063 -292.94037675 466.66952131 -296.87890625 463.71875 C-296.53276489 461.20922511 -296.12732324 459.96716699 -294.31640625 458.15625 C-292.11813265 456.85983224 -290.11173438 456.00306569 -287.7265625 455.12890625 C-287.00605713 454.86343994 -286.28555176 454.59797363 -285.54321289 454.32446289 C-284.7193811 454.02463501 -284.7193811 454.02463501 -283.87890625 453.71875 C-284.65584839 453.22846313 -284.65584839 453.22846313 -285.44848633 452.72827148 C-286.17447021 452.27009033 -286.9004541 451.81190918 -287.6484375 451.33984375 C-288.45015381 450.83404785 -289.25187012 450.32825195 -290.07788086 449.80712891 C-291.82584107 448.70299935 -293.57274345 447.59719343 -295.31860352 446.48974609 C-300.85197671 442.98023311 -300.85197671 442.98023311 -306.44921875 439.57421875 C-312.15697713 436.12934551 -316.54427009 433.4077717 -318.46484375 426.66015625 C-319.75196595 419.65384014 -317.39028237 414.75766417 -313.7421875 408.890625 C-310.67826457 404.69681687 -307.68854336 404.07996805 -302.87890625 402.71875 C-302.16535549 401.0716108 -301.51211295 399.3984141 -300.87890625 397.71875 C-299.27177198 394.92599333 -297.50280087 392.23688782 -295.75390625 389.53125 C-290.77801825 381.74586261 -285.89587131 373.90828213 -281.06640625 366.03125 C-275.27321373 356.59128347 -269.43718927 347.17999932 -263.54614258 337.80078125 C-260.17724811 332.42836316 -256.8462026 327.03565239 -253.55859375 321.61328125 C-252.83278387 320.41986009 -252.10687318 319.22650024 -251.38085938 318.03320312 C-249.99417816 315.75380056 -248.61688614 313.46954982 -247.24414062 311.18164062 C-239.79803279 298.93947565 -239.79803279 298.93947565 -233.44140625 296.28125 C-226.88759976 292.75447396 -224.87918456 283.04652415 -222.875 276.37890625 C-216.42698406 251.67708674 -219.90559681 224.85445421 -223.06555176 199.89849854 C-223.8185269 193.91848353 -224.53246711 187.93356804 -225.25 181.94921875 C-225.47696312 180.06552078 -225.47696312 180.06552078 -225.70851135 178.14376831 C-226.82569278 168.67175728 -227.58375458 159.25025932 -227.87890625 149.71875 C-227.91218018 148.74446045 -227.9454541 147.7701709 -227.97973633 146.76635742 C-229.02813999 106.9842041 -217.48572202 68.275274 -192.87890625 36.71875 C-191.84056641 35.34783203 -191.84056641 35.34783203 -190.78125 33.94921875 C-165.93570248 2.23051042 -129.93255793 -19.44709079 -89.83203125 -24.77734375 C-57.93004463 -28.38061594 -25.02010993 -20.66298379 0 0 Z M-170.87890625 28.71875 C-171.52472656 29.31171875 -172.17054688 29.9046875 -172.8359375 30.515625 C-187.49143682 44.38171803 -198.10773229 63.29423591 -205.87890625 81.71875 C-206.265625 82.63527344 -206.65234375 83.55179687 -207.05078125 84.49609375 C-209.95381152 91.92115194 -211.76115809 99.68132194 -213.40429688 107.46948242 C-213.72565809 108.99247671 -214.068813 110.51100675 -214.43164062 112.0246582 C-216.43469402 121.24422824 -216.18762504 130.52177125 -216.12890625 139.90625 C-216.12547211 140.80012421 -216.12203796 141.69399841 -216.11849976 142.61495972 C-216.04131478 159.76362367 -215.06924136 176.5203787 -212.6328125 193.50390625 C-210.23419536 210.38381276 -208.3810556 226.95986013 -208.37890625 244.03125 C-208.37271271 245.1788681 -208.37271271 245.1788681 -208.36639404 246.34967041 C-208.34564865 254.77708547 -208.87337714 262.97495601 -210.21484375 271.30078125 C-210.38687317 272.38097282 -210.38687317 272.38097282 -210.56237793 273.48298645 C-211.70313206 279.91775704 -213.96068329 285.71146473 -216.57421875 291.6796875 C-218.01630424 294.81544825 -218.01630424 294.81544825 -218.87890625 298.71875 C-210.95890625 303.66875 -203.03890625 308.61875 -194.87890625 313.71875 C-191.92969894 310.76954269 -189.25935146 308.06145575 -186.62890625 304.90625 C-165.58739663 280.83945896 -131.78431301 270.7629961 -102.50167847 260.6842041 C-86.25037166 255.08929043 -70.38462511 249.19030552 -54.87890625 241.71875 C-54.14542969 241.37183105 -53.41195312 241.02491211 -52.65625 240.66748047 C-38.14326587 233.73112776 -25.46148311 223.81278232 -13.87890625 212.71875 C-13.13511719 212.02652344 -12.39132812 211.33429688 -11.625 210.62109375 C-0.99833125 200.43797292 7.01175978 188.52076184 14.12109375 175.71875 C14.46382324 175.10725098 14.80655273 174.49575195 15.15966797 173.86572266 C33.65546423 140.38912828 38.68190121 101.05717905 29.16015625 63.9765625 C20.96561609 36.48707671 2.6981603 12.85279196 -22.32421875 -1.21875 C-74.58426711 -28.34253349 -130.25295275 -9.95004077 -170.87890625 28.71875 Z " fill="#45423B" transform="translate(407.87890625,33.28125)"/>
<path d="M0 0 C17.20942261 16.20022807 26.96057587 39.52952968 27.8125 62.97265625 C28.53345146 99.73887005 18.20787494 135.41826748 -7.5234375 162.62890625 C-9.25734651 164.46738954 -10.83261074 166.34651926 -12.40625 168.3203125 C-16.5127958 173.13760661 -21.57194118 176.86636014 -26.53125 180.7578125 C-27.41425781 181.50289062 -28.29726563 182.24796875 -29.20703125 183.015625 C-49.72442506 199.67331107 -79.41337782 208.08706914 -105.6328125 205.4453125 C-123.15656348 203.103236 -139.36449888 196.73913265 -152.53125 184.7578125 C-153.88863281 183.53964844 -153.88863281 183.53964844 -155.2734375 182.296875 C-166.32587183 171.8567639 -173.14506671 159.90088733 -178.53125 145.7578125 C-179.00691406 144.52417969 -179.00691406 144.52417969 -179.4921875 143.265625 C-183.1290912 133.14711076 -183.85936711 123.03570666 -183.79199219 112.3425293 C-183.78128209 110.32635307 -183.79194412 108.31107108 -183.8046875 106.29492188 C-183.78883752 98.23916927 -183.16353285 90.64521003 -181.53125 82.7578125 C-181.39058105 82.04117432 -181.24991211 81.32453613 -181.10498047 80.58618164 C-178.93234905 70.00693282 -175.31889773 60.40960234 -170.53125 50.7578125 C-170.17289063 50.03303711 -169.81453125 49.30826172 -169.4453125 48.56152344 C-163.50575588 36.76945543 -156.34826115 26.57312655 -147.53125 16.7578125 C-147.03367188 16.20367676 -146.53609375 15.64954102 -146.0234375 15.07861328 C-108.07551986 -26.4332632 -43.99235128 -38.96853339 0 0 Z M-65.48046875 -5.47460938 C-65.95097656 -4.55228516 -66.42148437 -3.62996094 -66.90625 -2.6796875 C-67.39996094 -1.78443359 -67.89367187 -0.88917969 -68.40234375 0.03320312 C-69.36317444 1.78191499 -70.30876855 3.53910403 -71.23730469 5.30517578 C-72.92448784 8.5031837 -74.71994288 11.62880091 -76.53125 14.7578125 C-73.55476479 16.65788013 -70.57457231 18.55205753 -67.59375 20.4453125 C-66.76294922 20.97576172 -65.93214844 21.50621094 -65.07617188 22.05273438 C-59.66181828 25.48674074 -54.17324059 28.71207578 -48.53125 31.7578125 C-43.7221807 25.22854734 -39.45263604 18.45843818 -35.28125 11.5078125 C-34.76208008 10.64446289 -34.24291016 9.78111328 -33.70800781 8.89160156 C-31.14057255 4.58477472 -28.69069092 0.28376401 -26.53125 -4.2421875 C-31.61858865 -7.20980171 -36.71533976 -9.01864824 -42.40625 -10.4921875 C-43.37691406 -10.75467285 -43.37691406 -10.75467285 -44.3671875 -11.02246094 C-46.41604023 -11.52756005 -48.44764366 -11.90835131 -50.53125 -12.2421875 C-51.35995605 -12.38857666 -52.18866211 -12.53496582 -53.04248047 -12.68579102 C-59.95816648 -13.38697737 -62.14292027 -11.39196896 -65.48046875 -5.47460938 Z M-86.84375 -8.9296875 C-87.57787109 -8.71634766 -88.31199219 -8.50300781 -89.06835938 -8.28320312 C-93.72014334 -6.90046344 -98.10645095 -5.23539288 -102.53125 -3.2421875 C-102.53125 -2.5821875 -102.53125 -1.9221875 -102.53125 -1.2421875 C-100.05714781 0.3895418 -97.59465341 1.90481414 -95.03125 3.3828125 C-94.31582031 3.80304688 -93.60039062 4.22328125 -92.86328125 4.65625 C-91.08978967 5.69669839 -89.31099734 6.72810154 -87.53125 7.7578125 C-83.46310778 4.03165071 -80.84099958 0.27681979 -78.21875 -4.5546875 C-77.85974609 -5.19986328 -77.50074219 -5.84503906 -77.13085938 -6.50976562 C-76.25679525 -8.08308105 -75.39294217 -9.66206215 -74.53125 -11.2421875 C-78.96577811 -11.2421875 -82.64858063 -10.19512752 -86.84375 -8.9296875 Z M-16.53125 2.7578125 C-23.89917311 14.40302293 -31.24074277 26.06396793 -38.53125 37.7578125 C-33.69530159 41.91467028 -28.31122449 45.15731742 -22.90625 48.5078125 C-21.95234375 49.10980469 -20.9984375 49.71179688 -20.015625 50.33203125 C-19.10039062 50.90050781 -18.18515625 51.46898437 -17.2421875 52.0546875 C-16.40993652 52.57385742 -15.57768555 53.09302734 -14.72021484 53.62792969 C-12.49750951 54.98714911 -12.49750951 54.98714911 -9.53125 54.7578125 C-7.70703751 52.5501018 -7.70703751 52.5501018 -5.9921875 49.6484375 C-5.32960938 48.58367187 -4.66703125 47.51890625 -3.984375 46.421875 C-3.29859375 45.29523438 -2.6128125 44.16859375 -1.90625 43.0078125 C-1.21273437 41.89664063 -0.51921875 40.78546875 0.1953125 39.640625 C4.31144224 33.5974352 4.31144224 33.5974352 6.46875 26.7578125 C1.93998732 18.16596968 -4.98783861 9.85507767 -12.53125 3.7578125 C-14.61317821 3.13176821 -14.61317821 3.13176821 -16.53125 2.7578125 Z M-118.7578125 6.09375 C-119.54929687 6.76664063 -120.34078125 7.43953125 -121.15625 8.1328125 C-122.03410156 8.8753125 -122.91195312 9.6178125 -123.81640625 10.3828125 C-125.16025391 11.5584375 -125.16025391 11.5584375 -126.53125 12.7578125 C-127.37558594 13.4796875 -128.21992188 14.2015625 -129.08984375 14.9453125 C-140.08680709 23.83792882 -140.08680709 23.83792882 -146.53125 35.7578125 C-136.30319312 42.2781184 -126.08602292 48.77466777 -115.53125 54.7578125 C-110.78895417 47.73975015 -106.22548385 40.61651533 -101.71875 33.4453125 C-101.03876953 32.37474609 -100.35878906 31.30417969 -99.65820312 30.20117188 C-99.01173828 29.17185547 -98.36527344 28.14253906 -97.69921875 27.08203125 C-96.82172974 25.6911731 -96.82172974 25.6911731 -95.92651367 24.2722168 C-94.68612217 22.0369076 -93.98347451 20.25436963 -93.53125 17.7578125 C-96.60889101 15.76968502 -99.69427752 13.79391392 -102.78125 11.8203125 C-104.09029297 10.97436523 -104.09029297 10.97436523 -105.42578125 10.11132812 C-106.27011719 9.57314453 -107.11445313 9.03496094 -107.984375 8.48046875 C-108.75942383 7.98297119 -109.53447266 7.48547363 -110.33300781 6.97290039 C-114.51884016 4.62803463 -114.51884016 4.62803463 -118.7578125 6.09375 Z M-83.53125 24.7578125 C-84.80835788 26.43541716 -84.80835788 26.43541716 -86.03515625 28.640625 C-86.76955933 29.88779297 -86.76955933 29.88779297 -87.51879883 31.16015625 C-88.03853271 32.05863281 -88.5582666 32.95710938 -89.09375 33.8828125 C-95.32779259 44.52810034 -95.32779259 44.52810034 -98.359375 49.0625 C-98.7814624 49.69397949 -99.2035498 50.32545898 -99.63842773 50.97607422 C-100.77723362 52.65948628 -101.92923764 54.33394813 -103.08203125 56.0078125 C-104.70940357 58.52946735 -104.70940357 58.52946735 -104.43359375 60.71606445 C-103.13056573 63.66444738 -101.28822795 64.5301431 -98.54296875 66.17578125 C-97.52654297 66.79001953 -96.51011719 67.40425781 -95.46289062 68.03710938 C-94.39232422 68.66681641 -93.32175781 69.29652344 -92.21875 69.9453125 C-91.15978516 70.58662109 -90.10082031 71.22792969 -89.00976562 71.88867188 C-83.09463886 75.59958221 -83.09463886 75.59958221 -76.53125 77.7578125 C-74.36171368 74.23858242 -72.19297023 70.71886528 -70.02490234 67.19873047 C-69.29008428 66.00589399 -68.55506451 64.81318174 -67.81982422 63.62060547 C-63.34405226 56.3604515 -58.89721812 49.08468178 -54.53125 41.7578125 C-55.13598145 41.38495117 -55.74071289 41.01208984 -56.36376953 40.62792969 C-59.12861538 38.92233265 -61.89243962 37.2150869 -64.65625 35.5078125 C-65.60757813 34.92128906 -66.55890625 34.33476563 -67.5390625 33.73046875 C-75.46884389 28.82942331 -75.46884389 28.82942331 -79.0859375 26.3359375 C-81.32626727 24.57706278 -81.32626727 24.57706278 -83.53125 24.7578125 Z M11.46875 42.7578125 C9.62428646 45.52138614 7.79516757 48.29478605 5.96875 51.0703125 C5.44410156 51.85599609 4.91945313 52.64167969 4.37890625 53.45117188 C3.88261719 54.20849609 3.38632812 54.96582031 2.875 55.74609375 C2.18374023 56.79083862 2.18374023 56.79083862 1.47851562 57.85668945 C0.2342097 59.84061544 0.2342097 59.84061544 0.46875 62.7578125 C2.9241647 64.46862491 5.31459512 65.97208711 7.90625 67.4453125 C8.96682617 68.06889648 8.96682617 68.06889648 10.04882812 68.70507812 C13.07746586 70.81293606 13.07746586 70.81293606 16.46875 71.7578125 C16.93667773 62.45124996 15.97035048 53.73144357 13.46875 44.7578125 C12.80875 44.0978125 12.14875 43.4378125 11.46875 42.7578125 Z M-154.53125 44.7578125 C-161.98993902 58.99368597 -169.11913786 73.69822379 -171.53125 89.7578125 C-171.89089844 91.459375 -171.89089844 91.459375 -172.2578125 93.1953125 C-171.37326774 97.5324352 -170.51258606 97.89210675 -166.9375 100.28515625 C-164.98402919 101.44793649 -163.01434524 102.58380931 -161.03125 103.6953125 C-160.02964844 104.28376953 -159.02804688 104.87222656 -157.99609375 105.47851562 C-155.52030543 106.92862021 -153.03306021 108.35323744 -150.53125 109.7578125 C-147.8658744 107.22875061 -145.78556166 104.83293143 -143.9375 101.66015625 C-143.46989258 100.86730225 -143.00228516 100.07444824 -142.52050781 99.25756836 C-142.02905273 98.41202393 -141.53759766 97.56647949 -141.03125 96.6953125 C-136.26481198 88.59580018 -131.3366107 80.62705297 -126.18945312 72.76342773 C-125.70927734 72.01778564 -125.22910156 71.27214355 -124.734375 70.50390625 C-124.30801758 69.85091553 -123.88166016 69.1979248 -123.44238281 68.52514648 C-122.30213499 66.6447914 -122.30213499 66.6447914 -122.53125 63.7578125 C-124.23452086 62.32403942 -124.23452086 62.32403942 -126.51953125 61.0859375 C-127.36668701 60.58932617 -128.21384277 60.09271484 -129.08666992 59.58105469 C-129.99650635 59.06188477 -130.90634277 58.54271484 -131.84375 58.0078125 C-133.68036742 56.93606014 -135.51630963 55.86314983 -137.3515625 54.7890625 C-138.24262695 54.27085938 -139.13369141 53.75265625 -140.05175781 53.21875 C-144.0196559 50.88083132 -147.87489458 48.38560298 -151.73046875 45.8671875 C-153.3206389 44.67039424 -153.3206389 44.67039424 -154.53125 44.7578125 Z M-45.53125 48.7578125 C-46.80835788 50.43541716 -46.80835788 50.43541716 -48.03515625 52.640625 C-48.76943848 53.88791382 -48.76943848 53.88791382 -49.51855469 55.16040039 C-50.03836914 56.05879639 -50.55818359 56.95719238 -51.09375 57.8828125 C-55.5272899 65.43717195 -60.1060179 72.83118095 -64.984375 80.10546875 C-66.78314596 82.67798101 -66.78314596 82.67798101 -66.53125 85.7578125 C-64.43694026 87.46919382 -64.43694026 87.46919382 -61.67578125 89.04296875 C-60.66064453 89.65591797 -59.64550781 90.26886719 -58.59960938 90.90039062 C-57.52517578 91.53396484 -56.45074219 92.16753906 -55.34375 92.8203125 C-54.28865234 93.45775391 -53.23355469 94.09519531 -52.14648438 94.75195312 C-47.68586168 97.4226982 -43.41483609 99.93815524 -38.53125 101.7578125 C-38.14380615 101.1186792 -37.7563623 100.4795459 -37.35717773 99.82104492 C-35.5622647 96.86171974 -33.76551561 93.90351322 -31.96875 90.9453125 C-31.35966797 89.94048828 -30.75058594 88.93566406 -30.12304688 87.90039062 C-26.45647675 81.86703978 -22.71046191 75.90812775 -18.80102539 70.02856445 C-17.2872184 67.75501865 -17.2872184 67.75501865 -17.53125 64.7578125 C-19.43027121 63.16203389 -19.43027121 63.16203389 -21.94921875 61.7265625 C-23.33657227 60.88158203 -23.33657227 60.88158203 -24.75195312 60.01953125 C-25.73099609 59.43816406 -26.71003906 58.85679688 -27.71875 58.2578125 C-28.67845703 57.67644531 -29.63816406 57.09507813 -30.62695312 56.49609375 C-33.25561203 54.90616442 -35.89189867 53.32990632 -38.53125 51.7578125 C-39.41981689 51.20029297 -40.30838379 50.64277344 -41.22387695 50.06835938 C-43.37882984 48.59318643 -43.37882984 48.59318643 -45.53125 48.7578125 Z M-112.53125 71.7578125 C-113.95432827 73.64590749 -113.95432827 73.64590749 -115.3671875 76.12109375 C-115.93155518 77.06243164 -116.49592285 78.00376953 -117.07739258 78.97363281 C-117.68091553 79.99553711 -118.28443848 81.01744141 -118.90625 82.0703125 C-120.16648482 84.1766698 -121.42822997 86.28212412 -122.69140625 88.38671875 C-123.32965332 89.45164551 -123.96790039 90.51657227 -124.62548828 91.61376953 C-127.95255117 97.10261348 -131.41179366 102.50713388 -134.88623047 107.90356445 C-135.35303223 108.63406006 -135.81983398 109.36455566 -136.30078125 110.1171875 C-136.70917236 110.75108398 -137.11756348 111.38498047 -137.53833008 112.03808594 C-138.69012001 113.90026343 -138.69012001 113.90026343 -139.53125 116.7578125 C-138.66959229 117.27166504 -138.66959229 117.27166504 -137.79052734 117.79589844 C-135.16148635 119.36495333 -132.53386016 120.93636275 -129.90625 122.5078125 C-129.00261719 123.04664063 -128.09898437 123.58546875 -127.16796875 124.140625 C-119.62641259 128.65454912 -119.62641259 128.65454912 -116.0703125 131.1484375 C-113.60996306 133.02549309 -113.60996306 133.02549309 -110.53125 132.7578125 C-108.98417065 130.89342853 -108.98417065 130.89342853 -107.59765625 128.39453125 C-107.0363501 127.45327393 -106.47504395 126.5120166 -105.89672852 125.54223633 C-105.30174561 124.52025146 -104.7067627 123.4982666 -104.09375 122.4453125 C-102.8456347 120.33742457 -101.59560087 118.23067157 -100.34375 116.125 C-99.71210938 115.05991211 -99.08046875 113.99482422 -98.4296875 112.89746094 C-96.64145714 109.9400738 -94.7958331 107.03404912 -92.90625 104.140625 C-92.34736084 103.28251221 -91.78847168 102.42439941 -91.21264648 101.5402832 C-90.15113074 99.92071529 -89.08060825 98.30700726 -88.00024414 96.69995117 C-87.52707764 95.97267822 -87.05391113 95.24540527 -86.56640625 94.49609375 C-86.1475415 93.86743408 -85.72867676 93.23877441 -85.29711914 92.59106445 C-84.38245878 90.77258013 -84.38245878 90.77258013 -84.63549805 88.70605469 C-85.85764761 86.04790437 -87.30738383 85.3040563 -89.828125 83.84765625 C-91.14296875 83.07518555 -91.14296875 83.07518555 -92.484375 82.28710938 C-93.40734375 81.76181641 -94.3303125 81.23652344 -95.28125 80.6953125 C-96.6425 79.90157227 -96.6425 79.90157227 -98.03125 79.09179688 C-99.7320094 78.10093047 -101.43580145 77.11523794 -103.14355469 76.13647461 C-104.85048417 75.15088864 -106.53674284 74.12915021 -108.20800781 73.08422852 C-110.37485515 71.59254097 -110.37485515 71.59254097 -112.53125 71.7578125 Z M-7.53125 72.7578125 C-9.38897961 75.09636687 -9.38897961 75.09636687 -11.1484375 78.1640625 C-11.48747101 78.72218628 -11.82650452 79.28031006 -12.17581177 79.85534668 C-13.26298131 81.65015226 -14.3347859 83.45359589 -15.40625 85.2578125 C-16.12007942 86.44331968 -16.83491243 87.62822319 -17.55078125 88.8125 C-18.92971225 91.09434136 -20.29882288 93.38112986 -21.66308594 95.671875 C-23.25251991 98.29739061 -24.90692438 100.85629494 -26.6015625 103.4140625 C-27.55675781 105.06921875 -27.55675781 105.06921875 -28.53125 106.7578125 C-27.245664 110.61457049 -25.81685955 111.11487044 -22.39453125 113.2265625 C-21.34201172 113.88011719 -20.28949219 114.53367188 -19.20507812 115.20703125 C-18.09583984 115.88378906 -16.98660156 116.56054688 -15.84375 117.2578125 C-14.20889648 118.27294922 -14.20889648 118.27294922 -12.54101562 119.30859375 C-7.62032776 122.3454638 -2.73454018 125.22624782 2.46875 127.7578125 C9.68714182 114.63157261 15.10844387 100.92342513 15.46875 85.7578125 C4.82821411 76.9903688 4.82821411 76.9903688 -7.53125 72.7578125 Z M-73.53125 94.7578125 C-79.24679323 103.55572186 -84.84630818 112.42333237 -90.40625 121.3203125 C-91.06052979 122.36703125 -91.71480957 123.41375 -92.38891602 124.4921875 C-94.9662854 128.62114808 -94.9662854 128.62114808 -97.53125 132.7578125 C-98.09344238 133.62913818 -98.65563477 134.50046387 -99.23486328 135.39819336 C-100.77200919 137.74731563 -100.77200919 137.74731563 -100.53125 140.7578125 C-98.09458897 142.69765735 -98.09458897 142.69765735 -94.9140625 144.55078125 C-94.34170868 144.90167313 -93.76935486 145.252565 -93.17965698 145.61408997 C-91.9671274 146.35454596 -90.75137177 147.08974078 -89.53271484 147.82006836 C-87.66414533 148.94057797 -85.80613011 150.07709352 -83.94921875 151.21679688 C-78.57099179 155.05250024 -78.57099179 155.05250024 -72.53125 156.7578125 C-71.30344195 155.16260493 -71.30344195 155.16260493 -70.1328125 153.05078125 C-69.65900146 152.24527832 -69.18519043 151.43977539 -68.69702148 150.60986328 C-67.9343396 149.29091064 -67.9343396 149.29091064 -67.15625 147.9453125 C-66.07886009 146.11208248 -64.99937558 144.28008209 -63.91796875 142.44921875 C-63.36157715 141.5070752 -62.80518555 140.56493164 -62.23193359 139.59423828 C-59.08025444 134.3378202 -55.76975246 129.18182455 -52.45361328 124.02807617 C-51.98294434 123.29177979 -51.51227539 122.5554834 -51.02734375 121.796875 C-50.61669678 121.15959473 -50.2060498 120.52231445 -49.78295898 119.86572266 C-48.21874447 117.23154513 -46.87695143 114.50886135 -45.53125 111.7578125 C-49.19677008 109.49640777 -52.86296262 107.23609854 -56.52978516 104.97680664 C-57.77736706 104.20790273 -59.02476398 103.4386986 -60.27197266 102.66918945 C-62.06364288 101.56382728 -63.85597331 100.45954283 -65.6484375 99.35546875 C-66.72722168 98.69039307 -67.80600586 98.02531738 -68.91748047 97.34008789 C-71.39459204 95.79255096 -71.39459204 95.79255096 -73.53125 94.7578125 Z M-172.53125 109.7578125 C-173.00939452 119.2675758 -172.9818489 131.58191415 -167.53125 139.7578125 C-165.63005772 136.85744696 -163.76518376 133.93540867 -161.90625 131.0078125 C-161.36484375 130.1828125 -160.8234375 129.3578125 -160.265625 128.5078125 C-159.76289063 127.70859375 -159.26015625 126.909375 -158.7421875 126.0859375 C-158.27087402 125.3527832 -157.79956055 124.61962891 -157.31396484 123.86425781 C-156.2885047 121.76495194 -156.2885047 121.76495194 -157.20532227 119.62109375 C-159.24410992 116.75605464 -162.10923296 115.24262327 -165.09375 113.5078125 C-165.69638672 113.14429688 -166.29902344 112.78078125 -166.91992188 112.40625 C-169.55194588 110.5542505 -169.55194588 110.5542505 -172.53125 109.7578125 Z M-35.53125 118.7578125 C-40.42670872 125.37838717 -44.61216249 132.59002224 -48.96875 139.5703125 C-49.59845703 140.57384766 -50.22816406 141.57738281 -50.87695312 142.61132812 C-55.23324115 149.5822844 -59.42800825 156.6351295 -63.53125 163.7578125 C-60.15426229 165.99605373 -56.75217622 168.19280329 -53.34375 170.3828125 C-51.90418945 171.33800781 -51.90418945 171.33800781 -50.43554688 172.3125 C-49.50419922 172.90546875 -48.57285156 173.4984375 -47.61328125 174.109375 C-46.75968018 174.66447754 -45.9060791 175.21958008 -45.02661133 175.79150391 C-42.5280896 177.04486968 -42.5280896 177.04486968 -39.84790039 176.01196289 C-24.99165119 167.96932909 -12.32195285 152.88487698 -3.53125 138.7578125 C-7.08686608 135.80601124 -10.73597242 133.28586506 -14.671875 130.8671875 C-15.23952576 130.51771057 -15.80717651 130.16823364 -16.39202881 129.8081665 C-17.58100177 129.07720593 -18.77097825 128.34787536 -19.96191406 127.62011719 C-21.7923707 126.50101353 -23.61902909 125.37589834 -25.4453125 124.25 C-30.2632533 120.63077711 -30.2632533 120.63077711 -35.53125 118.7578125 Z M-146.53125 126.7578125 C-148.63598934 130.1532912 -150.73994002 133.54925791 -152.84375 136.9453125 C-153.73610352 138.38487305 -153.73610352 138.38487305 -154.64648438 139.85351562 C-155.22333984 140.78486328 -155.80019531 141.71621094 -156.39453125 142.67578125 C-156.92344971 143.52938232 -157.45236816 144.3829834 -157.99731445 145.26245117 C-158.50351318 146.08592041 -159.00971191 146.90938965 -159.53125 147.7578125 C-160.10319092 148.63630859 -160.67513184 149.51480469 -161.2644043 150.41992188 C-162.83723956 152.7015967 -162.83723956 152.7015967 -161.9375 155.24609375 C-157.10917156 163.87002482 -150.51429941 172.83840852 -142.53125 178.7578125 C-140.52861265 178.83580549 -140.52861265 178.83580549 -138.53125 177.7578125 C-136.5552615 175.30131482 -136.5552615 175.30131482 -134.78125 172.18359375 C-134.44125977 171.62214157 -134.10126953 171.06068939 -133.75097656 170.48222351 C-132.66596097 168.68502633 -131.5983178 166.87821234 -130.53125 165.0703125 C-129.46047176 163.28270235 -128.38624787 161.49719962 -127.31152344 159.71195984 C-126.33236207 158.08121821 -125.36126666 156.44564146 -124.390625 154.80981445 C-123.09425189 152.68193102 -121.72263201 150.59886996 -120.296875 148.55541992 C-118.26439235 145.88634332 -118.26439235 145.88634332 -118.53125 142.7578125 C-120.7389607 140.93360001 -120.7389607 140.93360001 -123.640625 139.21875 C-124.70539063 138.55617187 -125.77015625 137.89359375 -126.8671875 137.2109375 C-127.99382812 136.52515625 -129.12046875 135.839375 -130.28125 135.1328125 C-131.39242187 134.43929687 -132.50359375 133.74578125 -133.6484375 133.03125 C-139.72758812 129.04595875 -139.72758812 129.04595875 -146.53125 126.7578125 Z M-108.53125 150.7578125 C-109.92834199 152.2956108 -109.92834199 152.2956108 -111.1328125 154.38671875 C-111.61911133 155.16797119 -112.10541016 155.94922363 -112.60644531 156.75415039 C-113.11788086 157.60098389 -113.62931641 158.44781738 -114.15625 159.3203125 C-114.6831543 160.1755249 -115.21005859 161.0307373 -115.75292969 161.91186523 C-117.35608433 164.52099214 -118.94386277 167.13907198 -120.53125 169.7578125 C-121.46012363 171.26872982 -122.38975689 172.77918051 -123.3203125 174.2890625 C-124.14166036 175.6321799 -124.96203406 176.9758937 -125.78125 178.3203125 C-126.16361816 178.94429932 -126.54598633 179.56828613 -126.93994141 180.21118164 C-128.91134026 183.26772598 -128.91134026 183.26772598 -129.53125 186.7578125 C-118.17233897 191.29445075 -108.73292837 193.98503954 -96.53125 194.7578125 C-94.63118237 191.78132729 -92.73700497 188.80113481 -90.84375 185.8203125 C-90.31330078 184.98951172 -89.78285156 184.15871094 -89.23632812 183.30273438 C-85.80232176 177.88838078 -82.57698672 172.39980309 -79.53125 166.7578125 C-80.10568848 166.41524414 -80.68012695 166.07267578 -81.27197266 165.71972656 C-83.90101365 164.15067167 -86.52863984 162.57926225 -89.15625 161.0078125 C-90.05988281 160.46898437 -90.96351563 159.93015625 -91.89453125 159.375 C-99.43608741 154.86107588 -99.43608741 154.86107588 -102.9921875 152.3671875 C-105.45253694 150.49013191 -105.45253694 150.49013191 -108.53125 150.7578125 Z M-69.53125 173.7578125 C-74.15776024 179.71506628 -78.03457783 186.0867421 -81.53125 192.7578125 C-75.99005054 192.41855539 -71.03222937 191.08080419 -65.78125 189.3203125 C-65.13148193 189.10286377 -64.48171387 188.88541504 -63.81225586 188.66137695 C-60.59867773 187.55698184 -57.51999252 186.38048836 -54.53125 184.7578125 C-55.88127166 180.70774751 -58.52791771 179.62693963 -62.03125 177.5703125 C-62.63839844 177.20228516 -63.24554688 176.83425781 -63.87109375 176.45507812 C-66.5249207 174.5719568 -66.5249207 174.5719568 -69.53125 173.7578125 Z " fill="#45413B" transform="translate(394.53125,62.2421875)"/>
<path d="M0 0 C9.94428973 7.52583847 17.26364718 18.00154983 19.44140625 30.484375 C20.92958395 44.18505863 18.07451581 56.28977947 9.75 67.31640625 C4.51304763 73.59139739 -0.87206052 77.43949609 -8.3125 80.75 C-8.99441406 81.08902344 -9.67632812 81.42804688 -10.37890625 81.77734375 C-20.45187614 86.05490631 -34.59180421 85.05966631 -44.56640625 81.14453125 C-57.28996708 74.68320662 -64.93330408 65.81376153 -70.3125 52.75 C-74.34312392 39.5832952 -72.52627622 26.77960248 -66.14453125 14.71484375 C-59.22826566 3.52199603 -50.54781817 -2.95537651 -38.0078125 -6.51953125 C-24.48945874 -9.19176397 -11.66425354 -7.65357176 0 0 Z " fill="#46433C" transform="translate(404.3125,343.25)"/>
<path d="M0 0 C20.55895579 17.13799869 36.65135967 41.89236863 39.5625 69 C39.65970245 70.3740892 39.74908698 71.74893742 39.8125 73.125 C37.17013983 69.89106666 35.50921452 66.52777271 33.75 62.75 C24.09263444 42.99747522 6.71808702 22.30397155 -14.1875 14.125 C-15.8322647 13.07191633 -17.4562127 11.98589028 -19.0625 10.875 C-40.36747536 -2.85169553 -65.62486276 -5.12787223 -89.96484375 -0.09375 C-107.86834145 4.26470904 -123.88830142 12.60779462 -138.18359375 24.14746094 C-141.30183305 26.66457299 -144.40663928 29.00018635 -147.8125 31.125 C-153.88732133 35.03913069 -158.98081943 40.15401279 -164.1875 45.125 C-164.91066406 45.7953125 -165.63382813 46.465625 -166.37890625 47.15625 C-186.47205369 66.31577645 -200.39573224 93.46987125 -207.1875 120.125 C-207.5175 120.125 -207.8475 120.125 -208.1875 120.125 C-209.30867877 82.78112243 -188.01715787 46.70740413 -163.51171875 20.234375 C-145.63272692 1.70853108 -122.8291025 -11.62746985 -98.1875 -18.875 C-97.08728516 -19.20951172 -97.08728516 -19.20951172 -95.96484375 -19.55078125 C-62.6361235 -28.8205527 -27.13619927 -20.85467166 0 0 Z " fill="#FCA853" transform="translate(400.1875,41.875)"/>
<path d="M0 0 C3.88483878 0.85071127 6.31026994 2.02864595 9.64111328 4.16333008 C10.69685547 4.83235352 11.75259766 5.50137695 12.84033203 6.19067383 C13.92185547 6.89321289 15.00337891 7.59575195 16.11767578 8.31958008 C17.22240234 9.02211914 18.32712891 9.7246582 19.46533203 10.44848633 C27.50200295 15.57890725 27.50200295 15.57890725 28.74267578 16.81958008 C28.76333661 24.26780779 24.51364724 29.66999084 20.61767578 35.75708008 C19.89151043 36.91089871 19.16651232 38.0654527 18.44262695 39.22070312 C16.95143636 41.59656618 15.45373336 43.96811378 13.95019531 46.33618164 C11.24874232 50.59304344 8.58224957 54.87152546 5.91503906 59.14990234 C4.0552593 62.13194617 2.19042907 65.11078248 0.32470703 68.08911133 C-3.05409806 73.48812059 -6.40948666 78.9013287 -9.75732422 84.31958008 C-16.88038693 95.84684296 -24.0668337 107.3342898 -31.25732422 118.81958008 C-37.14438723 116.65798243 -42.31244394 113.31634068 -47.63305664 110.05249023 C-49.44390383 108.94514291 -51.26337736 107.85300849 -53.08349609 106.76098633 C-54.23965607 106.05487285 -55.3952744 105.34787157 -56.55029297 104.63989258 C-57.59725342 104.00325684 -58.64421387 103.36662109 -59.72290039 102.71069336 C-63.53056037 99.86952833 -63.53056037 99.86952833 -64.25732422 96.81958008 C-63.38964844 94.55566406 -63.38964844 94.55566406 -61.81201172 92.06567383 C-61.23596191 91.13907959 -60.65991211 90.21248535 -60.06640625 89.2578125 C-59.42815918 88.2675708 -58.78991211 87.2773291 -58.13232422 86.25708008 C-57.48505371 85.22494385 -56.8377832 84.19280762 -56.17089844 83.12939453 C-54.21454119 80.01644118 -52.23779123 76.9172336 -50.25732422 73.81958008 C-49.24031326 72.21108054 -48.2245615 70.60178371 -47.21044922 68.99145508 C-45.7880918 66.73435791 -44.36411445 64.47840729 -42.93383789 62.22631836 C-38.70705929 55.56715483 -34.57083315 48.85404042 -30.44482422 42.13208008 C-24.98503419 33.24496701 -19.51587897 24.36406518 -14.00732422 15.50708008 C-13.38752686 14.50523682 -12.76772949 13.50339355 -12.12915039 12.47119141 C-10.52911308 9.90434945 -8.89794987 7.36056254 -7.25732422 4.81958008 C-6.60248047 3.75352539 -5.94763672 2.6874707 -5.27294922 1.58911133 C-3.25732422 -0.18041992 -3.25732422 -0.18041992 0 0 Z " fill="#BBBCBE" transform="translate(181.25732421875,340.180419921875)"/>
<path d="M0 0 C1.75215106 0.93347358 3.50163563 1.8719532 5.25 2.8125 C6.71179688 3.59560547 6.71179688 3.59560547 8.203125 4.39453125 C10.63355412 5.78965188 12.80787699 7.26195961 15 9 C14.85112786 16.49677556 10.81729987 21.77802697 6.875 27.9375 C6.14883464 29.09131863 5.42383654 30.24587263 4.69995117 31.40112305 C3.20876058 33.77698611 1.71105758 36.1485337 0.20751953 38.51660156 C-2.49393346 42.77346336 -5.16042622 47.05194539 -7.82763672 51.33032227 C-9.68741649 54.31236609 -11.55224671 57.2912024 -13.41796875 60.26953125 C-16.79677384 65.66854051 -20.15216244 71.08174862 -23.5 76.5 C-30.62306272 88.02726288 -37.80950948 99.51470973 -45 111 C-49.23953857 109.37500162 -52.9816998 107.29220503 -56.8125 104.875 C-57.40998047 104.50246094 -58.00746094 104.12992187 -58.62304688 103.74609375 C-60.08426251 102.8342952 -61.54244585 101.91764024 -63 101 C-62.46995361 100.21580688 -62.46995361 100.21580688 -61.92919922 99.41577148 C-57.87007363 93.3733447 -53.97280326 87.24118408 -50.125 81.0625 C-49.47789062 80.02544922 -48.83078125 78.98839844 -48.1640625 77.91992188 C-42.73835785 69.21270932 -37.36190617 60.47552517 -31.99389648 51.73266602 C-26.81468782 43.30407921 -21.57891993 34.91203905 -16.32592773 26.52929688 C-10.81588549 17.72743538 -5.39033792 8.8755668 0 0 Z " fill="#86888B" transform="translate(195,348)"/>
<path d="M0 0 C3.91132886 1.25006266 5.45731912 2.95743009 8.19140625 6 C20.40068246 18.89596925 36.04014351 26.13041539 52.44140625 32.30859375 C54.12890625 33 54.12890625 33 55.12890625 34 C55.12109375 37.328125 55.12109375 37.328125 54.12890625 41 C51.74208172 42.66759474 49.8925418 43.66320925 47.25390625 44.75 C45.78778178 45.41884632 44.324342 46.09360088 42.86328125 46.7734375 C42.09048828 47.12889648 41.31769531 47.48435547 40.52148438 47.85058594 C24.91535148 55.34789958 10.31313927 65.20065527 -2.6875 76.6015625 C-5.31828077 78.28639169 -6.80171209 78.35869235 -9.87109375 78 C-11.74609375 77 -11.74609375 77 -12.87109375 75 C-12.2247602 67.69145905 -10.71000693 60.50801743 -9.33203125 53.30859375 C-7.69586203 44.55386739 -6.84367671 36.03599046 -6.66015625 27.12890625 C-6.64571472 26.43388 -6.63127319 25.73885376 -6.61639404 25.02276611 C-6.55915073 22.13152309 -6.50416955 19.24049308 -6.46972656 16.34887695 C-6.44220736 14.21258034 -6.39642626 12.07730907 -6.34765625 9.94140625 C-6.32783691 8.68013916 -6.30801758 7.41887207 -6.28759766 6.11938477 C-5.87109375 3 -5.87109375 3 -4.52075195 1.06616211 C-2.87109375 0 -2.87109375 0 0 0 Z M5.12890625 20 C5.07355713 20.76554199 5.01820801 21.53108398 4.96118164 22.31982422 C4.70599116 25.83831937 4.44871231 29.35665895 4.19140625 32.875 C4.10439453 34.07898438 4.01738281 35.28296875 3.92773438 36.5234375 C3.42607635 43.36085057 2.86019919 50.18312934 2.12890625 57 C7.62911218 54.07006703 12.90958145 50.89944714 18.12890625 47.5 C23.34621815 44.1018639 28.61523478 40.90270006 34.12890625 38 C31.12909849 35.58034374 28.12428267 33.98174561 24.62890625 32.375 C18.6273983 29.45175627 13.65024372 25.86112906 8.4296875 21.7578125 C6.47903983 19.89881675 6.47903983 19.89881675 5.12890625 20 Z " fill="#47413B" transform="translate(217.87109375,251)"/>
<path d="M0 0 C1.25280566 2.50561133 1.08308538 4.14623298 1.02734375 6.9453125 C1.00897461 8.43804687 1.00897461 8.43804687 0.99023438 9.9609375 C0.95546748 12.04695102 0.9165021 14.13289939 0.87304688 16.21875 C0.70488791 31.61024099 6.69570292 43.1579251 17.27734375 54.26953125 C17.84582031 54.84058594 18.41429687 55.41164063 19 56 C16.82650986 61.21412402 12.85368756 63.41763568 8 66 C0.84039016 68.83642864 -6.336498 69.70282558 -14 69 C-14.66 68.67 -15.32 68.34 -16 68 C-15.9685791 66.85168701 -15.9685791 66.85168701 -15.93652344 65.68017578 C-15.85261638 62.16192115 -15.80110404 58.64387797 -15.75 55.125 C-15.71648437 53.92101562 -15.68296875 52.71703125 -15.6484375 51.4765625 C-15.47888499 35.87773161 -22.68371118 24.32275603 -33 13 C-30.49098752 6.88593274 -24.11954347 3.77140642 -18.3125 1.125 C-12.48682334 -0.90390165 -6.07313208 -0.23030136 0 0 Z " fill="#9AE85F" transform="translate(385,347)"/>
<path d="M0 0 C6.56437598 0.34963387 10.66626549 2.90049749 16.0625 6.5 C16.8879834 7.03665283 17.7134668 7.57330566 18.56396484 8.1262207 C20.24227392 9.21811113 21.9174397 10.31484892 23.58935547 11.41650391 C25.8210508 12.88245245 28.06424524 14.32747272 30.31640625 15.76171875 C39.80488422 21.80488422 39.80488422 21.80488422 41 23 C40.39039666 31.07724426 40.39039666 31.07724426 37 34 C30.82811892 35.04592183 27.01455554 31.91452715 22.125 28.625 C20.44484214 27.51956815 18.76383664 26.41542368 17.08203125 25.3125 C16.23850098 24.755625 15.3949707 24.19875 14.52587891 23.625 C12.11798095 22.07590191 9.67912525 20.61780033 7.19921875 19.1875 C6.45849121 18.75356934 5.71776367 18.31963867 4.95458984 17.87255859 C3.55420281 17.05696961 2.14454675 16.25703979 0.72509766 15.47509766 C-1.16796875 14.3515625 -1.16796875 14.3515625 -4 12 C-4.75786462 7.76455802 -4.21424558 6.36153942 -2 2.625 C-1.34 1.75875 -0.68 0.8925 0 0 Z " fill="#85878A" transform="translate(105,447)"/>
<path d="M0 0 C1.56902561 3.13805122 0.56136446 6.26618588 0.0625 9.625 C-0.03740234 10.33140625 -0.13730469 11.0378125 -0.24023438 11.765625 C-0.48791959 13.51121607 -0.74323871 15.25572084 -1 17 C-2.57587891 17.05607422 -2.57587891 17.05607422 -4.18359375 17.11328125 C-11.96113653 17.45493759 -18.71177647 18.00662248 -26 21 C-28.31 18.36 -30.62 15.72 -33 13 C-29.79034525 6.5806905 -23.13029655 2.80288841 -16.39453125 0.45703125 C-11.00729002 -0.5712024 -5.45646898 -0.20691666 0 0 Z " fill="#C5FB9E" transform="translate(385,347)"/>
<path d="M0 0 C8.00764316 4.4920925 12.60757233 10.9352221 15.4375 19.625 C17.72643533 28.12957869 17.08862066 33.89237076 14 42 C6.27327233 34.95504242 0.01832203 25.59054907 -1 15 C-1.34989713 4.5639379 -1.34989713 4.5639379 0 0 Z " fill="#C1F69B" transform="translate(396,352)"/>
<path d="M0 0 C6.25641052 4.57999929 10.76654886 10.54587618 13 18 C13.92857976 25.29652828 13.51688828 32.68205472 13 40 C4.15214403 34.52099296 0.20225803 26.85420696 -2.55859375 17.0078125 C-3.99749952 10.46270131 -2.91327663 5.82655325 0 0 Z " fill="#99E55F" transform="translate(346,370)"/>
<path d="M0 0 C5.58523676 0.44371994 8.88186837 1.83772705 13.4375 5.0625 C15.01337891 6.16271484 15.01337891 6.16271484 16.62109375 7.28515625 C17.40613281 7.85105469 18.19117187 8.41695313 19 9 C18.36934243 12.21852831 17.21979305 14.50801069 15.4375 17.25 C14.98246094 17.95640625 14.52742188 18.6628125 14.05859375 19.390625 C13.70925781 19.92171875 13.35992187 20.4528125 13 21 C8.98709884 20.31462827 5.7072487 18.35265665 2.25 16.3125 C1.64800781 15.98572266 1.04601562 15.65894531 0.42578125 15.32226562 C-1.296875 14.30078125 -1.296875 14.30078125 -4 12 C-4.71199648 7.77656635 -4.20710725 6.34949349 -2 2.625 C-1.34 1.75875 -0.68 0.8925 0 0 Z " fill="#B9BABC" transform="translate(105,447)"/>
<path d="M0 0 C4.60372665 2.0342048 7.5876952 4.31830272 11 8 C11.763125 8.763125 12.52625 9.52625 13.3125 10.3125 C13.869375 10.869375 14.42625 11.42625 15 12 C15.66 11.34 16.32 10.68 17 10 C17.37851209 15.93002267 16.10575375 20.47239641 14 26 C7.41454517 19.99561471 0.3997566 11.26285343 -0.1875 2.0625 C-0.125625 1.381875 -0.06375 0.70125 0 0 Z " fill="#99E460" transform="translate(396,368)"/>
<path d="M0 0 C1.32 0.99 2.64 1.98 4 3 C2.55746343 6.36591866 0.66735273 8.51047079 -2 11 C-2.28571429 3.57142857 -2.28571429 3.57142857 0 0 Z " fill="#C5FB9D" transform="translate(346,370)"/>
</svg>
