<?xml version="1.0" encoding="UTF-8"?>
<svg version="1.1" xmlns="http://www.w3.org/2000/svg" width="392" height="512">
<path d="M0 0 C9.95111793 4.09751915 17.29393581 17.98264413 23.63671875 26.50390625 C27.34102515 31.47212598 31.10941613 36.39066939 34.875 41.3125 C40.10857341 48.16038775 45.2780621 55.04982108 50.375 62 C54.92739534 68.20718095 59.53631743 74.35548385 64.25 80.44140625 C73.08292247 91.84725197 81.7910109 103.351805 90.42578125 114.90820312 C94.53852861 120.40473009 98.70569628 125.85880892 102.875 131.3125 C109.78389092 140.35880344 116.56561138 149.49159878 123.29101562 158.67480469 C124.99277946 160.99017594 126.7054651 163.29703267 128.421875 165.6015625 C158.35406398 205.8336838 189.77955962 248.71722741 190.23828125 300.87890625 C190.2480751 301.80046005 190.25786896 302.72201385 190.26795959 303.67149353 C190.58994949 341.78792453 190.58994949 341.78792453 186 360 C185.79101074 360.87301758 185.58202148 361.74603516 185.36669922 362.64550781 C178.88498394 389.24238894 167.31837534 414.69743441 150 436 C149.37738281 436.82371094 148.75476563 437.64742188 148.11328125 438.49609375 C133.43791525 457.43856028 115.33879346 472.57010467 95 485 C93.90171875 485.67933594 92.8034375 486.35867188 91.671875 487.05859375 C66.11121605 502.30582403 35.16288359 511.93964844 5.3125 512.23828125 C4.50073807 512.2480751 3.68897614 512.25786896 2.85261536 512.26795959 C-15.10022183 512.43989479 -32.45631205 512.29281303 -50 508 C-51.34433105 507.67854004 -51.34433105 507.67854004 -52.71582031 507.35058594 C-103.74657528 494.8074272 -147.78307762 462.00707921 -175.01171875 417.18359375 C-187.25310345 396.36086667 -195.80717933 373.79455763 -200 350 C-200.17732666 349.05326416 -200.35465332 348.10652832 -200.53735352 347.13110352 C-202.22994306 337.01247632 -202.33863043 326.99926719 -202.31567383 316.76147461 C-202.31252394 313.83474064 -202.33602036 310.90903104 -202.36132812 307.98242188 C-202.48775865 270.77068533 -190.22263117 238.98615737 -170 208 C-169.34902344 206.98808594 -168.69804687 205.97617188 -168.02734375 204.93359375 C-166.05764198 201.92676664 -164.03986883 198.95974083 -162 196 C-161.51192871 195.29182129 -161.02385742 194.58364258 -160.52099609 193.85400391 C-148.77394298 176.84938116 -136.52779859 160.25234755 -123.96582031 143.84277344 C-119.53573402 138.04661897 -115.18201862 132.2005377 -110.875 126.3125 C-105.7381931 119.2947217 -100.46587403 112.39863835 -95.10449219 105.55126953 C-90.89155714 100.16545525 -86.76218368 94.72416754 -82.67480469 89.24267578 C-78.53241904 83.69274938 -74.33213578 78.18844528 -70.125 72.6875 C-64.97164679 65.94558348 -59.88571338 59.16104066 -54.875 52.3125 C-49.79650481 45.37284766 -44.58415397 38.55568289 -39.26708984 31.79736328 C-36.17862769 27.85577319 -33.15913113 23.87780886 -30.21875 19.82421875 C-29.59613281 18.96634766 -28.97351563 18.10847656 -28.33203125 17.22460938 C-27.14534007 15.58120656 -25.96520793 13.93303933 -24.79296875 12.27929688 C-17.74872354 2.51990704 -12.28411722 -1.06818411 0 0 Z " fill="#98DCFE" transform="translate(202,0)"/>
<path d="M0 0 C9.95111793 4.09751915 17.29393581 17.98264413 23.63671875 26.50390625 C27.34102515 31.47212598 31.10941613 36.39066939 34.875 41.3125 C40.10857341 48.16038775 45.2780621 55.04982108 50.375 62 C54.92739534 68.20718095 59.53631743 74.35548385 64.25 80.44140625 C73.08292247 91.84725197 81.7910109 103.351805 90.42578125 114.90820312 C94.53852861 120.40473009 98.70569628 125.85880892 102.875 131.3125 C109.78389092 140.35880344 116.56561138 149.49159878 123.29101562 158.67480469 C124.99277946 160.99017594 126.7054651 163.29703267 128.421875 165.6015625 C158.35406398 205.8336838 189.77955962 248.71722741 190.23828125 300.87890625 C190.2480751 301.80046005 190.25786896 302.72201385 190.26795959 303.67149353 C190.58994949 341.78792453 190.58994949 341.78792453 186 360 C185.79101074 360.87301758 185.58202148 361.74603516 185.36669922 362.64550781 C178.88498394 389.24238894 167.31837534 414.69743441 150 436 C149.37738281 436.82371094 148.75476563 437.64742188 148.11328125 438.49609375 C133.43791525 457.43856028 115.33879346 472.57010467 95 485 C93.90171875 485.67933594 92.8034375 486.35867188 91.671875 487.05859375 C66.11121605 502.30582403 35.16288359 511.93964844 5.3125 512.23828125 C4.50073807 512.2480751 3.68897614 512.25786896 2.85261536 512.26795959 C-15.10022183 512.43989479 -32.45631205 512.29281303 -50 508 C-51.34433105 507.67854004 -51.34433105 507.67854004 -52.71582031 507.35058594 C-103.74657528 494.8074272 -147.78307762 462.00707921 -175.01171875 417.18359375 C-187.25310345 396.36086667 -195.80717933 373.79455763 -200 350 C-200.17732666 349.05326416 -200.35465332 348.10652832 -200.53735352 347.13110352 C-202.22994306 337.01247632 -202.33863043 326.99926719 -202.31567383 316.76147461 C-202.31252394 313.83474064 -202.33602036 310.90903104 -202.36132812 307.98242188 C-202.48775865 270.77068533 -190.22263117 238.98615737 -170 208 C-169.34902344 206.98808594 -168.69804687 205.97617188 -168.02734375 204.93359375 C-166.05764198 201.92676664 -164.03986883 198.95974083 -162 196 C-161.51192871 195.29182129 -161.02385742 194.58364258 -160.52099609 193.85400391 C-148.77394298 176.84938116 -136.52779859 160.25234755 -123.96582031 143.84277344 C-119.53573402 138.04661897 -115.18201862 132.2005377 -110.875 126.3125 C-105.7381931 119.2947217 -100.46587403 112.39863835 -95.10449219 105.55126953 C-90.89155714 100.16545525 -86.76218368 94.72416754 -82.67480469 89.24267578 C-78.53241904 83.69274938 -74.33213578 78.18844528 -70.125 72.6875 C-64.97164679 65.94558348 -59.88571338 59.16104066 -54.875 52.3125 C-49.79650481 45.37284766 -44.58415397 38.55568289 -39.26708984 31.79736328 C-36.17862769 27.85577319 -33.15913113 23.87780886 -30.21875 19.82421875 C-29.59613281 18.96634766 -28.97351563 18.10847656 -28.33203125 17.22460938 C-27.14534007 15.58120656 -25.96520793 13.93303933 -24.79296875 12.27929688 C-17.74872354 2.51990704 -12.28411722 -1.06818411 0 0 Z M-7 44 C-8.57579936 45.68926444 -8.57579936 45.68926444 -10.203125 47.92578125 C-10.84685059 48.77591797 -11.49057617 49.62605469 -12.15380859 50.50195312 C-13.19142334 51.89317383 -13.19142334 51.89317383 -14.25 53.3125 C-15.32048584 54.73272461 -15.32048584 54.73272461 -16.41259766 56.18164062 C-21.70308621 63.21687723 -26.92768997 70.30073183 -32.13427734 77.39819336 C-36.10266913 82.80329939 -40.14387801 88.1399165 -44.25 93.44140625 C-52.66041362 104.30167141 -60.96138324 115.24960672 -69.1875 126.25 C-73.17787529 131.5861384 -77.19892119 136.89728944 -81.25 142.1875 C-81.78044922 142.88045166 -82.31089844 143.57340332 -82.85742188 144.28735352 C-85.22768623 147.38268539 -87.5989162 150.47727034 -89.97216797 153.5703125 C-97.7172211 163.66887548 -105.38808742 173.79111386 -112.71777344 184.1953125 C-114.67510393 186.95018436 -116.66854764 189.67853812 -118.6574707 192.41064453 C-145.60392245 229.48139375 -169.50233865 264.07870489 -169.375 311.3125 C-169.3737915 312.14459991 -169.37258301 312.97669983 -169.37133789 313.83401489 C-169.28084935 336.89507389 -165.69669375 357.56248764 -157 379 C-156.68546875 379.77811035 -156.3709375 380.5562207 -156.046875 381.35791016 C-142.67646488 413.61544093 -117.14924992 440.81984319 -87 458 C-86.03320312 458.55518311 -86.03320312 458.55518311 -85.046875 459.12158203 C-49.50787937 479.32421242 -5.72789478 485.08125504 34 475 C62.9255884 466.96128706 87.59105695 452.96963505 109 432 C109.80824219 431.24203125 110.61648438 430.4840625 111.44921875 429.703125 C132.04727582 410.00376151 145.31759554 383.15412284 153 356 C153.21172852 355.27731934 153.42345703 354.55463867 153.64160156 353.81005859 C157.24270205 340.92656518 157.36678804 327.96441028 157.375 314.6875 C157.37699402 313.83468445 157.37898804 312.9818689 157.38104248 312.10321045 C157.37717068 297.45970271 156.94615596 282.77131868 152.0625 268.8125 C151.61015991 267.4985022 151.61015991 267.4985022 151.14868164 266.15795898 C142.72201279 242.74172347 128.16044925 221.45197634 113.26611328 201.69726562 C111.19135971 198.91599165 109.19233275 196.08185672 107.1875 193.25 C96.4480569 178.15423342 85.29461019 163.37281557 74.03662109 148.66162109 C70.66609604 144.25674647 67.30076318 139.84792104 63.9375 135.4375 C62.94713745 134.1388501 62.94713745 134.1388501 61.93676758 132.81396484 C56.73265241 125.98105159 51.57706293 119.11263549 46.43115234 112.23583984 C42.5023193 106.99014892 38.54797454 101.76527976 34.5625 96.5625 C34.04075195 95.8813916 33.51900391 95.2002832 32.98144531 94.49853516 C31.89792628 93.08469102 30.81426421 91.67095648 29.73046875 90.25732422 C19.48063243 76.88684078 9.31596207 63.46493283 -0.62817383 49.86499023 C-1.08087646 49.24954346 -1.5335791 48.63409668 -2 48 C-2.51135498 47.26144775 -3.02270996 46.52289551 -3.54956055 45.76196289 C-4.02820557 45.18051514 -4.50685059 44.59906738 -5 44 C-5.66 44 -6.32 44 -7 44 Z " fill="#664848" transform="translate(202,0)"/>
<path d="M0 0 C5.45437085 1.91913049 8.1600799 4.9334665 11.08984375 9.81640625 C17.7530039 25.80227116 7.78610182 51.95235457 1.609375 67.04272461 C-4.46462381 81.31834738 -12.4973368 93.61165895 -23 105 C-23.86367188 105.94617188 -24.72734375 106.89234375 -25.6171875 107.8671875 C-44.64687402 127.80036062 -69.88733052 140.63072242 -97 145 C-98.19753906 145.20496094 -99.39507812 145.40992188 -100.62890625 145.62109375 C-120.61083645 148.80153269 -120.61083645 148.80153269 -127.5 144.9375 C-131.98701082 141.59093776 -134.52475979 138.11876387 -135.375 132.5390625 C-135.64804074 126.856402 -134.86886541 123.39168506 -131 119 C-126.73529518 115.24299814 -124.46477885 113.94675265 -118.79663086 113.81201172 C-91.03697078 113.0193244 -66.42991814 101.59574959 -47 82 C-36.13685814 70.40881689 -29.21615824 56.18812908 -25 41 C-24.53980469 39.40091797 -24.53980469 39.40091797 -24.0703125 37.76953125 C-22.25267649 30.80192656 -21.58302501 24.0877065 -21.55371094 16.91064453 C-21.43039439 11.80267982 -20.18857642 8.95500488 -17 5 C-11.3010612 -0.0204937 -7.46345948 -0.63152349 0 0 Z " fill="#664949" transform="translate(315,300)"/>
</svg>
