<?xml version="1.0" encoding="UTF-8"?>
<svg version="1.1" xmlns="http://www.w3.org/2000/svg" width="512" height="512">
<path d="M0 0 C0.74883453 -0.00570007 1.49766907 -0.01140015 2.26919556 -0.01727295 C3.85083631 -0.02667245 5.43249621 -0.0332367 7.01416016 -0.03710938 C9.37309514 -0.0467083 11.73111653 -0.07773414 14.08984375 -0.109375 C47.52566997 -0.34288589 78.5986 11.74345429 104.0390625 33.203125 C104.67328125 33.71488281 105.3075 34.22664063 105.9609375 34.75390625 C131.15658969 55.43440838 145.48299464 89.48618244 149.0390625 121.203125 C149.40200291 127.07191483 149.38016962 132.95050954 149.3515625 138.828125 C149.34940735 139.6247052 149.3472522 140.4212854 149.34503174 141.24200439 C149.29343572 153.12728085 148.88228837 164.61074443 146.0390625 176.203125 C145.82443359 177.09128906 145.60980469 177.97945312 145.38867188 178.89453125 C142.66273729 189.93343988 139.57117465 200.75834961 135.0390625 211.203125 C134.58917969 212.24082031 134.13929688 213.27851563 133.67578125 214.34765625 C118.41110387 248.37430906 95.09557122 278.73702647 65.2265625 301.265625 C64.60402588 301.74354492 63.98148926 302.22146484 63.34008789 302.71386719 C59.65318169 305.42132305 56.76610738 307.0884891 52.0390625 307.203125 C51.0490625 306.543125 50.0590625 305.883125 49.0390625 305.203125 C44.89896305 305.49088976 41.39871052 308.18561345 37.9140625 310.265625 C31.30444712 314.203125 31.30444712 314.203125 29.0390625 314.203125 C29.1421875 315.255 29.2453125 316.306875 29.3515625 317.390625 C29.0390625 321.203125 29.0390625 321.203125 27.09765625 323.69140625 C23.24716733 326.85342971 19.41779424 328.45330845 14.7890625 330.203125 C13.89936768 330.54633789 13.00967285 330.88955078 12.09301758 331.24316406 C3.85072412 334.36866409 -4.39165548 337.12878551 -12.9609375 339.203125 C-14.14623047 339.49727295 -14.14623047 339.49727295 -15.35546875 339.79736328 C-31.55592092 343.64906488 -47.66391551 343.66325091 -64.2109375 343.44140625 C-65.22845345 343.43004639 -65.22845345 343.43004639 -66.26652527 343.41845703 C-70.5692079 343.33431467 -74.71132399 342.8590991 -78.9609375 342.203125 C-110.37787803 340.51235098 -156.00674356 343.49867512 -180.81054688 365.28613281 C-185.13060208 369.27122401 -189.28933604 373.40592551 -193.40332031 377.60253906 C-195.98444875 380.22703125 -198.6062685 382.80545296 -201.234375 385.3828125 C-202.89580408 387.04952053 -204.5547539 388.71870451 -206.2109375 390.390625 C-207.38245361 391.53785034 -207.38245361 391.53785034 -208.57763672 392.70825195 C-213.17256165 397.35698536 -213.17256165 397.35698536 -214.37890625 403.53515625 C-214.24097656 404.74558594 -214.10304687 405.95601563 -213.9609375 407.203125 C-216.93922843 417.0139657 -225.58805367 423.98124381 -232.64672852 431.05004883 C-233.48667358 431.8949588 -234.32661865 432.73986877 -235.1920166 433.61038208 C-237.47299035 435.90336281 -239.7561895 438.19409275 -242.04093671 440.48331285 C-243.47149498 441.9168212 -244.90147244 443.35090653 -246.33128166 444.78516197 C-250.81512085 449.28262685 -255.30092092 453.77812191 -259.78963715 458.27071935 C-264.95418582 463.43976018 -270.11210377 468.61530021 -275.26443535 473.79651815 C-279.26272682 477.81644052 -283.26677861 481.83056556 -287.27523178 485.8403551 C-289.66328386 488.22945264 -292.04886908 490.62089258 -294.4284687 493.01841164 C-297.08013969 495.68712111 -299.74109461 498.34622363 -302.40454102 501.00317383 C-303.57595894 502.18841393 -303.57595894 502.18841393 -304.77104187 503.39759827 C-310.23515359 508.82003373 -314.82064881 512.61808215 -322.8359375 512.703125 C-323.80273438 512.7340625 -324.76953125 512.765 -325.765625 512.796875 C-334.79116799 511.11975699 -341.02608702 503.60611027 -347.22631836 497.32885742 C-348.77721859 495.76180453 -350.34360722 494.21152226 -351.91210938 492.66210938 C-352.91502632 491.657211 -353.91701278 490.65138292 -354.91796875 489.64453125 C-355.81491455 488.74420166 -356.71186035 487.84387207 -357.63598633 486.91625977 C-362.54443557 481.18827526 -363.54187861 476.43566311 -363.2890625 469.0859375 C-362.37283009 461.03618135 -356.24422011 456.04610565 -350.91015625 450.4609375 C-347.43881934 447.8034107 -345.2921725 447.3526498 -340.9609375 447.203125 C-339.95921509 447.52518921 -339.95921509 447.52518921 -338.93725586 447.85375977 C-338.2850708 447.96905029 -337.63288574 448.08434082 -336.9609375 448.203125 C-334.67077284 446.28377716 -332.72812052 444.43964642 -330.7109375 442.265625 C-330.15664063 441.68876953 -329.60234375 441.11191406 -329.03125 440.51757812 C-327.66299605 439.09034771 -326.3104337 437.64810442 -324.9609375 436.203125 C-325.2909375 435.543125 -325.6209375 434.883125 -325.9609375 434.203125 C-326.49007089 430.89604131 -326.759279 428.37401254 -324.80383301 425.50605774 C-319.00939453 419.15409696 -312.9897827 413.0305942 -306.9296875 406.93359375 C-306.07533363 406.07312659 -306.07533363 406.07312659 -305.20372009 405.19527626 C-302.19652608 402.16737382 -299.18617604 399.14264921 -296.17333984 396.12036133 C-293.07491047 393.01081257 -289.98835138 389.88974647 -286.90419769 386.76604748 C-284.51558238 384.35125772 -282.11809516 381.94542476 -279.71815491 379.54189491 C-278.57616913 378.39505675 -277.43754647 377.24485892 -276.30247498 376.09117699 C-274.71423478 374.47849545 -273.11372594 372.87900926 -271.50976562 371.28198242 C-270.60488403 370.37123459 -269.70000244 369.46048676 -268.7677002 368.5221405 C-265.12375768 365.5114267 -261.5109513 363.22548201 -256.62184143 363.18261719 C-255.94814011 363.28735352 -255.27443878 363.39208984 -254.58032227 363.5 C-250.48453466 363.62815742 -248.67029976 362.6297941 -245.57788086 359.96875 C-244.04474033 358.4881037 -242.5368703 356.98099039 -241.05078125 355.453125 C-240.23903946 354.64762207 -239.42729767 353.84211914 -238.59095764 353.01220703 C-236.87832453 351.30131389 -235.1768931 349.57914385 -233.48608398 347.84667969 C-230.93209136 345.23750598 -228.33660523 342.67615162 -225.73242188 340.1171875 C-212.98392029 327.38278202 -204.76365839 315.57061507 -200.6484375 297.828125 C-200.28927246 296.3594397 -200.28927246 296.3594397 -199.92285156 294.86108398 C-194.69032458 272.94764648 -189.9916781 247.45161485 -193.45874023 224.97607422 C-194.36702329 218.15225003 -194.20165161 211.2647744 -194.2109375 204.390625 C-194.21327393 203.60843597 -194.21561035 202.82624695 -194.21801758 202.02035522 C-194.23104121 190.50228284 -193.68639269 179.44562765 -190.9609375 168.203125 C-191.6209375 168.533125 -192.2809375 168.863125 -192.9609375 169.203125 C-212.58367304 170.9188128 -230.43994796 167.61240342 -246.2734375 155.265625 C-247.85003898 153.92790253 -249.41377079 152.57478414 -250.9609375 151.203125 C-251.58613281 150.67203125 -252.21132812 150.1409375 -252.85546875 149.59375 C-266.03464164 137.57482032 -271.65713594 119.96402122 -273.1796875 102.7265625 C-273.89278287 84.95860275 -267.18727186 66.98319969 -255.7109375 53.57421875 C-243.37121246 40.6214625 -227.12197951 31.69815973 -209.015625 30.8671875 C-189.12267467 30.51872288 -170.9216837 34.82282884 -156.09716797 48.93261719 C-150.06310711 54.92362154 -144.28944793 61.29791273 -140.9609375 69.203125 C-137.33968555 66.17309786 -133.83212211 63.13529919 -130.5234375 59.765625 C-117.86759329 46.97039925 -103.23116439 36.61153133 -87.9609375 27.203125 C-87.36313477 26.83058594 -86.76533203 26.45804688 -86.14941406 26.07421875 C-61.31462292 10.71716593 -29.34322778 0.17866139 0 0 Z M-9.0859375 54.328125 C-9.88257813 54.46210693 -10.67921875 54.59608887 -11.5 54.73413086 C-17.10202082 55.736312 -22.52863041 57.0728132 -27.9609375 58.765625 C-28.63656738 58.97525879 -29.31219727 59.18489258 -30.00830078 59.40087891 C-32.90384826 60.34860783 -34.77719174 61.01937924 -36.9609375 63.203125 C-32.3409375 67.823125 -27.7209375 72.443125 -22.9609375 77.203125 C-17.09544014 72.18546642 -17.09544014 72.18546642 -11.55859375 66.8984375 C-10.81416016 66.15078125 -10.06972656 65.403125 -9.30273438 64.6328125 C-8.55056641 63.87226562 -7.79839844 63.11171875 -7.0234375 62.328125 C-6.24419922 61.544375 -5.46496094 60.760625 -4.66210938 59.953125 C-2.75939665 58.03873919 -0.85907579 56.12204466 1.0390625 54.203125 C-2.22636982 52.57040884 -5.60307115 53.73743606 -9.0859375 54.328125 Z M42.0390625 59.203125 C47.31007664 65.61381787 53.13034402 71.38903012 59.0390625 77.203125 C62.40626637 75.80979926 64.0250149 74.2241964 66.0390625 71.203125 C55.06910247 62.66481221 55.06910247 62.66481221 42.0390625 59.203125 Z M15.35522461 62.7734375 C14.17305033 63.95577108 12.99364711 65.14087915 11.81640625 66.328125 C11.19633194 66.94961426 10.57625763 67.57110352 9.93739319 68.21142578 C7.94810235 70.2063356 5.96230749 72.20468618 3.9765625 74.203125 C2.63238949 75.55231056 1.28799144 76.90127195 -0.05664062 78.25 C-3.36069457 81.56510812 -6.66161616 84.88330706 -9.9609375 88.203125 C-8.32315705 92.39938409 -5.22770568 95.18989285 -2.078125 98.28125 C-1.50385773 98.85268738 -0.92959045 99.42412476 -0.33792114 100.01287842 C1.4914206 101.83105445 3.32760443 103.64213992 5.1640625 105.453125 C6.40801024 106.68703829 7.6515052 107.92140822 8.89453125 109.15625 C11.93748617 112.17719243 14.98659504 115.19179592 18.0390625 118.203125 C22.23532159 116.56534455 25.02583035 113.46989318 28.1171875 110.3203125 C28.97434357 109.45891159 28.97434357 109.45891159 29.84881592 108.58010864 C31.66699195 106.7507669 33.47807742 104.91458307 35.2890625 103.078125 C36.52297579 101.83417726 37.75734572 100.5906823 38.9921875 99.34765625 C42.01312993 96.30470133 45.02773342 93.25559246 48.0390625 90.203125 C42.99147823 84.05710271 37.44347289 78.45440763 31.81469727 72.84838867 C30.20925735 71.24837838 28.60931942 69.6430019 27.00976562 68.03710938 C25.99250859 67.02051194 24.97494203 66.0042241 23.95703125 64.98828125 C22.57680786 63.60974976 22.57680786 63.60974976 21.16870117 62.20336914 C18.33833415 59.44987093 18.33833415 59.44987093 15.35522461 62.7734375 Z M-87.9609375 93.203125 C-86.39810768 96.96916369 -84.05459 99.33951651 -81.171875 102.1875 C-80.70858795 102.64795715 -80.2453009 103.10841431 -79.76797485 103.58282471 C-78.29527852 105.04437578 -76.81576347 106.49879668 -75.3359375 107.953125 C-74.33287428 108.94615111 -73.33026493 109.93963589 -72.328125 110.93359375 C-69.87762915 113.36210441 -67.4209708 115.78427175 -64.9609375 118.203125 C-60.76467841 116.56534455 -57.97416965 113.46989318 -54.8828125 110.3203125 C-54.02565643 109.45891159 -54.02565643 109.45891159 -53.15118408 108.58010864 C-51.33300805 106.7507669 -49.52192258 104.91458307 -47.7109375 103.078125 C-46.47702421 101.83417726 -45.24265428 100.5906823 -44.0078125 99.34765625 C-40.98687007 96.30470133 -37.97226658 93.25559246 -34.9609375 90.203125 C-36.38156265 86.9762252 -38.10339191 84.80369988 -40.5859375 82.3125 C-41.29234375 81.60351562 -41.99875 80.89453125 -42.7265625 80.1640625 C-43.83257812 79.06964844 -43.83257812 79.06964844 -44.9609375 77.953125 C-45.69828125 77.20804687 -46.435625 76.46296875 -47.1953125 75.6953125 C-47.90171875 74.99148437 -48.608125 74.28765625 -49.3359375 73.5625 C-50.30660156 72.59521973 -50.30660156 72.59521973 -51.296875 71.60839844 C-58.14126562 65.82842302 -82.06337053 88.44189078 -87.9609375 93.203125 Z M74.4765625 85.703125 C73.27 86.940625 73.27 86.940625 72.0390625 88.203125 C73.4655203 91.4617886 75.20610412 93.6056104 77.734375 96.09375 C78.44980469 96.80273438 79.16523438 97.51171875 79.90234375 98.2421875 C81.02189453 99.33660156 81.02189453 99.33660156 82.1640625 100.453125 C82.91816406 101.19820312 83.67226563 101.94328125 84.44921875 102.7109375 C86.30807022 104.5462592 88.17143255 106.3767441 90.0390625 108.203125 C90.3690625 107.543125 90.6990625 106.883125 91.0390625 106.203125 C89.91060631 103.56707522 88.7221623 101.06068232 87.4140625 98.515625 C87.06988281 97.82017578 86.72570312 97.12472656 86.37109375 96.40820312 C83.97384317 91.67120059 81.27478312 87.41618785 78.0390625 83.203125 C76.56169268 83.08673769 76.56169268 83.08673769 74.4765625 85.703125 Z M-25.73657227 103.86523438 C-26.96106415 105.08988557 -28.18278458 106.31731152 -29.40234375 107.546875 C-30.04461411 108.1905603 -30.68688446 108.83424561 -31.34861755 109.49743652 C-33.40923762 111.56367579 -35.46636275 113.63335669 -37.5234375 115.703125 C-38.91578762 117.10048764 -40.30836275 118.49762611 -41.70117188 119.89453125 C-45.12371488 123.32812873 -48.54312632 126.76481768 -51.9609375 130.203125 C-48.25078223 134.6297321 -44.43945457 138.84527376 -40.34375 142.91796875 C-39.84173065 143.41857315 -39.3397113 143.91917755 -38.82247925 144.43495178 C-37.24600079 146.00591098 -35.66605177 147.57332377 -34.0859375 149.140625 C-33.00497476 150.21656227 -31.92424367 151.29273231 -30.84375 152.36914062 C-28.21881109 154.98315792 -25.59075122 157.59401096 -22.9609375 160.203125 C-16.22013325 154.67662166 -10.1538246 148.50862941 -4.0234375 142.328125 C-2.94750023 141.24716226 -1.87133019 140.16643117 -0.79492188 139.0859375 C1.81909542 136.46099859 4.42994846 133.83293872 7.0390625 131.203125 C1.99147823 125.05710271 -3.55652711 119.45440763 -9.18530273 113.84838867 C-10.79074265 112.24837838 -12.39068058 110.6430019 -13.99023438 109.03710938 C-15.00749141 108.02051194 -16.02505797 107.0042241 -17.04296875 105.98828125 C-18.42319214 104.60974976 -18.42319214 104.60974976 -19.83129883 103.20336914 C-22.69271034 100.4398289 -22.69271034 100.4398289 -25.73657227 103.86523438 Z M56.35522461 103.7734375 C55.17305033 104.95577108 53.99364711 106.14087915 52.81640625 107.328125 C52.19633194 107.94961426 51.57625763 108.57110352 50.93739319 109.21142578 C48.94810235 111.2063356 46.96230749 113.20468618 44.9765625 115.203125 C43.63238949 116.55231056 42.28799144 117.90127195 40.94335938 119.25 C37.63930543 122.56510812 34.33838384 125.88330706 31.0390625 129.203125 C32.67684295 133.39938409 35.77229432 136.18989285 38.921875 139.28125 C39.49614227 139.85268738 40.07040955 140.42412476 40.66207886 141.01287842 C42.4914206 142.83105445 44.32760443 144.64213992 46.1640625 146.453125 C47.40801024 147.68703829 48.6515052 148.92140822 49.89453125 150.15625 C52.93748617 153.17719243 55.98659504 156.19179592 59.0390625 159.203125 C63.23532159 157.56534455 66.02583035 154.46989318 69.1171875 151.3203125 C69.97434357 150.45891159 69.97434357 150.45891159 70.84881592 149.58010864 C72.66699195 147.7507669 74.47807742 145.91458307 76.2890625 144.078125 C77.52297579 142.83417726 78.75734572 141.5906823 79.9921875 140.34765625 C83.01312993 137.30470133 86.02773342 134.25559246 89.0390625 131.203125 C83.99147823 125.05710271 78.44347289 119.45440763 72.81469727 113.84838867 C71.20925735 112.24837838 69.60931942 110.6430019 68.00976562 109.03710938 C66.99250859 108.02051194 65.97494203 107.0042241 64.95703125 105.98828125 C63.57680786 104.60974976 63.57680786 104.60974976 62.16870117 103.20336914 C59.33833415 100.44987093 59.33833415 100.44987093 56.35522461 103.7734375 Z M-100.9609375 106.203125 C-102.71966713 108.18474918 -104.34832303 110.16908752 -105.9609375 112.265625 C-106.44425537 112.88888672 -106.92757324 113.51214844 -107.42553711 114.15429688 C-110.93647852 118.73880362 -114.28870118 123.42011314 -117.5234375 128.203125 C-117.94044922 128.81293213 -118.35746094 129.42273926 -118.78710938 130.05102539 C-121.288099 133.82480307 -122.48454381 136.77394393 -123.9609375 141.203125 C-118.0209375 147.143125 -112.0809375 153.083125 -105.9609375 159.203125 C-101.7884244 157.11686845 -99.09356389 154.59153613 -95.8828125 151.3203125 C-95.31137512 150.74604523 -94.73993774 150.17177795 -94.15118408 149.58010864 C-92.33300805 147.7507669 -90.52192258 145.91458307 -88.7109375 144.078125 C-87.47702421 142.83417726 -86.24265428 141.5906823 -85.0078125 140.34765625 C-81.98687007 137.30470133 -78.97226658 134.25559246 -75.9609375 131.203125 C-77.52188819 127.46505889 -79.83522896 125.07069959 -82.6796875 122.21875 C-83.61167969 121.28417969 -84.54367187 120.34960938 -85.50390625 119.38671875 C-85.98907715 118.9057373 -86.47424805 118.42475586 -86.97412109 117.92919922 C-88.46300089 116.45107652 -89.94085401 114.96252589 -91.41796875 113.47265625 C-92.34996094 112.54324219 -93.28195312 111.61382812 -94.2421875 110.65625 C-95.52706055 109.37476074 -95.52706055 109.37476074 -96.83789062 108.06738281 C-98.74051356 105.98318334 -98.74051356 105.98318334 -100.9609375 106.203125 Z M-66.73657227 144.86523438 C-67.96106415 146.08988557 -69.18278458 147.31731152 -70.40234375 148.546875 C-71.04461411 149.1905603 -71.68688446 149.83424561 -72.34861755 150.49743652 C-74.40923762 152.56367579 -76.46636275 154.63335669 -78.5234375 156.703125 C-79.91578762 158.10048764 -81.30836275 159.49762611 -82.70117188 160.89453125 C-86.12371488 164.32812873 -89.54312632 167.76481768 -92.9609375 171.203125 C-89.25078223 175.6297321 -85.43945457 179.84527376 -81.34375 183.91796875 C-80.84173065 184.41857315 -80.3397113 184.91917755 -79.82247925 185.43495178 C-78.24600079 187.00591098 -76.66605177 188.57332377 -75.0859375 190.140625 C-74.00497476 191.21656227 -72.92424367 192.29273231 -71.84375 193.36914062 C-69.21881109 195.98315792 -66.59075122 198.59401096 -63.9609375 201.203125 C-57.22013325 195.67662166 -51.1538246 189.50862941 -45.0234375 183.328125 C-43.94750023 182.24716226 -42.87133019 181.16643117 -41.79492188 180.0859375 C-39.18090458 177.46099859 -36.57005154 174.83293872 -33.9609375 172.203125 C-39.00852177 166.05710271 -44.55652711 160.45440763 -50.18530273 154.84838867 C-51.79074265 153.24837838 -53.39068058 151.6430019 -54.99023438 150.03710938 C-56.00749141 149.02051194 -57.02505797 148.0042241 -58.04296875 146.98828125 C-59.42319214 145.60974976 -59.42319214 145.60974976 -60.83129883 144.20336914 C-63.69271034 141.4398289 -63.69271034 141.4398289 -66.73657227 144.86523438 Z M15.26342773 144.86523438 C14.03893585 146.08988557 12.81721542 147.31731152 11.59765625 148.546875 C10.95538589 149.1905603 10.31311554 149.83424561 9.65138245 150.49743652 C7.59076238 152.56367579 5.53363725 154.63335669 3.4765625 156.703125 C2.08421238 158.10048764 0.69163725 159.49762611 -0.70117188 160.89453125 C-4.12371488 164.32812873 -7.54312632 167.76481768 -10.9609375 171.203125 C-7.25078223 175.6297321 -3.43945457 179.84527376 0.65625 183.91796875 C1.15826935 184.41857315 1.6602887 184.91917755 2.17752075 185.43495178 C3.75399921 187.00591098 5.33394823 188.57332377 6.9140625 190.140625 C7.99502524 191.21656227 9.07575633 192.29273231 10.15625 193.36914062 C12.78118891 195.98315792 15.40924878 198.59401096 18.0390625 201.203125 C24.77986675 195.67662166 30.8461754 189.50862941 36.9765625 183.328125 C38.05249977 182.24716226 39.12866981 181.16643117 40.20507812 180.0859375 C42.81909542 177.46099859 45.42994846 174.83293872 48.0390625 172.203125 C42.99147823 166.05710271 37.44347289 160.45440763 31.81469727 154.84838867 C30.20925735 153.24837838 28.60931942 151.6430019 27.00976562 150.03710938 C25.99250859 149.02051194 24.97494203 148.0042241 23.95703125 146.98828125 C22.57680786 145.60974976 22.57680786 145.60974976 21.16870117 144.20336914 C18.30728966 141.4398289 18.30728966 141.4398289 15.26342773 144.86523438 Z M92.81420898 150.31445312 C91.84362256 151.28519877 90.87580474 152.25871721 89.91015625 153.234375 C89.40106216 153.74488403 88.89196808 154.25539307 88.3674469 154.78137207 C86.73480148 156.41963505 85.10565868 158.06133332 83.4765625 159.703125 C82.37327509 160.81142515 81.26976243 161.91950111 80.16601562 163.02734375 C77.45440631 165.75000536 74.74593436 168.4757537 72.0390625 171.203125 C75.37022865 175.15686687 78.72334806 179.01354357 82.4140625 182.640625 C83.44660156 183.65962891 83.44660156 183.65962891 84.5 184.69921875 C85.00789063 185.19550781 85.51578125 185.69179687 86.0390625 186.203125 C89.49745195 182.46241805 90.38794211 178.19984 91.6015625 173.390625 C91.925802 172.137052 91.925802 172.137052 92.2565918 170.8581543 C94.12993368 163.3597988 95.26920313 155.89022822 96.0390625 148.203125 C94.64875864 148.08839864 94.64875864 148.08839864 92.81420898 150.31445312 Z M-131.9609375 157.203125 C-135.31492507 164.69077829 -137.23509639 172.09865099 -138.7734375 180.140625 C-139.00224609 181.26275391 -139.23105469 182.38488281 -139.46679688 183.54101562 C-140.83715208 189.41430833 -140.83715208 189.41430833 -139.9609375 195.203125 C-132.3709375 187.613125 -124.7809375 180.023125 -116.9609375 172.203125 C-121.98309785 166.32689288 -121.98309785 166.32689288 -127.2734375 160.765625 C-127.95019531 160.08628906 -128.62695312 159.40695313 -129.32421875 158.70703125 C-130.71320569 157.09035841 -130.71320569 157.09035841 -131.9609375 157.203125 Z M-25.73657227 185.86523438 C-26.96106415 187.08988557 -28.18278458 188.31731152 -29.40234375 189.546875 C-30.04461411 190.1905603 -30.68688446 190.83424561 -31.34861755 191.49743652 C-33.40923762 193.56367579 -35.46636275 195.63335669 -37.5234375 197.703125 C-38.91578762 199.10048764 -40.30836275 200.49762611 -41.70117188 201.89453125 C-45.12371488 205.32812873 -48.54312632 208.76481768 -51.9609375 212.203125 C-48.25078223 216.6297321 -44.43945457 220.84527376 -40.34375 224.91796875 C-39.84173065 225.41857315 -39.3397113 225.91917755 -38.82247925 226.43495178 C-37.24600079 228.00591098 -35.66605177 229.57332377 -34.0859375 231.140625 C-33.00497476 232.21656227 -31.92424367 233.29273231 -30.84375 234.36914062 C-28.21881109 236.98315792 -25.59075122 239.59401096 -22.9609375 242.203125 C-16.22013325 236.67662166 -10.1538246 230.50862941 -4.0234375 224.328125 C-2.94750023 223.24716226 -1.87133019 222.16643117 -0.79492188 221.0859375 C1.81909542 218.46099859 4.42994846 215.83293872 7.0390625 213.203125 C1.99147823 207.05710271 -3.55652711 201.45440763 -9.18530273 195.84838867 C-10.79074265 194.24837838 -12.39068058 192.6430019 -13.99023438 191.03710938 C-15.00749141 190.02051194 -16.02505797 189.0042241 -17.04296875 187.98828125 C-18.42319214 186.60974976 -18.42319214 186.60974976 -19.83129883 185.20336914 C-22.69271034 182.4398289 -22.69271034 182.4398289 -25.73657227 185.86523438 Z M-108.75830078 186.7734375 C-109.93775979 187.95321443 -111.11169945 189.13852479 -112.28125 190.328125 C-112.89990936 190.94961426 -113.51856873 191.57110352 -114.15597534 192.21142578 C-116.13735481 194.20403023 -118.11168099 196.20346533 -120.0859375 198.203125 C-121.42532352 199.55253782 -122.76516151 200.90150218 -124.10546875 202.25 C-127.3958986 205.56252095 -130.68001756 208.88118568 -133.9609375 212.203125 C-130.25078223 216.6297321 -126.43945457 220.84527376 -122.34375 224.91796875 C-121.84173065 225.41857315 -121.3397113 225.91917755 -120.82247925 226.43495178 C-119.24600079 228.00591098 -117.66605177 229.57332377 -116.0859375 231.140625 C-115.00497476 232.21656227 -113.92424367 233.29273231 -112.84375 234.36914062 C-110.21881109 236.98315792 -107.59075122 239.59401096 -104.9609375 242.203125 C-98.40716653 236.81671576 -92.48847115 230.84427373 -86.5234375 224.828125 C-85.49567767 223.79533905 -84.46768465 222.76278509 -83.43945312 221.73046875 C-80.94392152 219.22402213 -78.45155668 216.7144542 -75.9609375 214.203125 C-77.60060153 210.03103508 -80.65365279 207.22190871 -83.7734375 204.125 C-84.34296143 203.55356262 -84.91248535 202.98212524 -85.49926758 202.39337158 C-86.7005043 201.19077711 -87.90425747 199.99069166 -89.11035156 198.79296875 C-90.96134705 196.95271783 -92.80139196 195.10199867 -94.640625 193.25 C-95.80925474 192.08269116 -96.97850434 190.91600249 -98.1484375 189.75 C-98.70055908 189.19382996 -99.25268066 188.63765991 -99.8215332 188.06463623 C-104.03917592 183.51960656 -104.03917592 183.51960656 -108.75830078 186.7734375 Z M56.24169922 186.7734375 C55.06224021 187.95321443 53.88830055 189.13852479 52.71875 190.328125 C52.10009064 190.94961426 51.48143127 191.57110352 50.84402466 192.21142578 C48.86264519 194.20403023 46.88831901 196.20346533 44.9140625 198.203125 C43.57467648 199.55253782 42.23483849 200.90150218 40.89453125 202.25 C37.6041014 205.56252095 34.31998244 208.88118568 31.0390625 212.203125 C32.60001319 215.94119111 34.91335396 218.33555041 37.7578125 221.1875 C38.68980469 222.12207031 39.62179687 223.05664062 40.58203125 224.01953125 C41.3097876 224.74100342 41.3097876 224.74100342 42.05224609 225.47705078 C43.54112589 226.95517348 45.01897901 228.44372411 46.49609375 229.93359375 C47.89408203 231.32771484 47.89408203 231.32771484 49.3203125 232.75 C50.60518555 234.03148926 50.60518555 234.03148926 51.91601562 235.33886719 C53.81863856 237.42306666 53.81863856 237.42306666 56.0390625 237.203125 C57.79779213 235.22150082 59.42644803 233.23716248 61.0390625 231.140625 C61.52238037 230.51736328 62.00569824 229.89410156 62.50366211 229.25195312 C66.01460352 224.66744638 69.36682618 219.98613686 72.6015625 215.203125 C73.01857422 214.59331787 73.43558594 213.98351074 73.86523438 213.35522461 C76.25030876 209.75635304 77.86751897 206.35735504 79.0390625 202.203125 C76.08880524 199.19508928 73.12756581 196.1981071 70.1640625 193.203125 C69.32230469 192.34460938 68.48054688 191.48609375 67.61328125 190.6015625 C66.80761719 189.78945312 66.00195312 188.97734375 65.171875 188.140625 C64.05643311 187.00947266 64.05643311 187.00947266 62.91845703 185.85546875 C59.7837561 183.09947292 59.326586 183.93893863 56.24169922 186.7734375 Z M-67.75830078 227.7734375 C-68.93775979 228.95321443 -70.11169945 230.13852479 -71.28125 231.328125 C-71.89990936 231.94961426 -72.51856873 232.57110352 -73.15597534 233.21142578 C-75.13735481 235.20403023 -77.11168099 237.20346533 -79.0859375 239.203125 C-80.42532352 240.55253782 -81.76516151 241.90150218 -83.10546875 243.25 C-86.3958986 246.56252095 -89.68001756 249.88118568 -92.9609375 253.203125 C-89.25078223 257.6297321 -85.43945457 261.84527376 -81.34375 265.91796875 C-80.84173065 266.41857315 -80.3397113 266.91917755 -79.82247925 267.43495178 C-78.24600079 269.00591098 -76.66605177 270.57332377 -75.0859375 272.140625 C-74.00497476 273.21656227 -72.92424367 274.29273231 -71.84375 275.36914062 C-69.21881109 277.98315792 -66.59075122 280.59401096 -63.9609375 283.203125 C-57.40716653 277.81671576 -51.48847115 271.84427373 -45.5234375 265.828125 C-44.49567767 264.79533905 -43.46768465 263.76278509 -42.43945312 262.73046875 C-39.94392152 260.22402213 -37.45155668 257.7144542 -34.9609375 255.203125 C-36.60060153 251.03103508 -39.65365279 248.22190871 -42.7734375 245.125 C-43.34296143 244.55356262 -43.91248535 243.98212524 -44.49926758 243.39337158 C-45.7005043 242.19077711 -46.90425747 240.99069166 -48.11035156 239.79296875 C-49.96134705 237.95271783 -51.80139196 236.10199867 -53.640625 234.25 C-54.80925474 233.08269116 -55.97850434 231.91600249 -57.1484375 230.75 C-57.70055908 230.19382996 -58.25268066 229.63765991 -58.8215332 229.06463623 C-63.03917592 224.51960656 -63.03917592 224.51960656 -67.75830078 227.7734375 Z M15.24169922 227.7734375 C14.06224021 228.95321443 12.88830055 230.13852479 11.71875 231.328125 C11.10009064 231.94961426 10.48143127 232.57110352 9.84402466 233.21142578 C7.86264519 235.20403023 5.88831901 237.20346533 3.9140625 239.203125 C2.57467648 240.55253782 1.23483849 241.90150218 -0.10546875 243.25 C-3.3958986 246.56252095 -6.68001756 249.88118568 -9.9609375 253.203125 C-8.5344797 256.4617886 -6.79389588 258.6056104 -4.265625 261.09375 C-3.55019531 261.80273438 -2.83476562 262.51171875 -2.09765625 263.2421875 C-1.35128906 263.97179687 -0.60492188 264.70140625 0.1640625 265.453125 C0.91816406 266.19820313 1.67226563 266.94328125 2.44921875 267.7109375 C4.30807022 269.5462592 6.17143255 271.3767441 8.0390625 273.203125 C13.13743851 271.77995869 16.97836416 269.53204978 21.2890625 266.578125 C22.27096558 265.91478149 22.27096558 265.91478149 23.27270508 265.23803711 C28.01657917 261.99645775 32.55985164 258.55811982 36.98828125 254.89453125 C38.96245645 253.26630675 40.98051537 251.72263948 43.0390625 250.203125 C41.47811181 246.46505889 39.16477104 244.07069959 36.3203125 241.21875 C35.38832031 240.28417969 34.45632813 239.34960938 33.49609375 238.38671875 C33.01092285 237.9057373 32.52575195 237.42475586 32.02587891 236.92919922 C30.53699911 235.45107652 29.05914599 233.96252589 27.58203125 232.47265625 C26.65003906 231.54324219 25.71804688 230.61382812 24.7578125 229.65625 C23.47293945 228.37476074 23.47293945 228.37476074 22.16210938 227.06738281 C18.85044821 224.15939699 18.52011254 224.76111987 15.24169922 227.7734375 Z M-135.9609375 235.203125 C-133.32340826 244.51205172 -129.15482258 253.54680496 -121.9609375 260.203125 C-120.3109375 258.553125 -118.6609375 256.903125 -116.9609375 255.203125 C-118.3844925 251.96035773 -120.11564815 249.80219196 -122.62109375 247.3125 C-123.6874707 246.24902344 -123.6874707 246.24902344 -124.77539062 245.1640625 C-125.88817383 244.06964844 -125.88817383 244.06964844 -127.0234375 242.953125 C-127.76916016 242.20804688 -128.51488281 241.46296875 -129.28320312 240.6953125 C-132.21682618 237.14405838 -132.21682618 237.14405838 -135.9609375 235.203125 Z M-105.9609375 266.203125 C-107.6752993 268.16239563 -109.34498918 270.16192712 -110.9609375 272.203125 C-103.85117055 277.62773274 -96.41084206 282.15722917 -87.9609375 285.203125 C-87.3009375 284.873125 -86.6409375 284.543125 -85.9609375 284.203125 C-88.91119476 281.19508928 -91.87243419 278.1981071 -94.8359375 275.203125 C-95.67769531 274.34460938 -96.51945312 273.48609375 -97.38671875 272.6015625 C-98.19238281 271.78945313 -98.99804688 270.97734375 -99.828125 270.140625 C-100.57175293 269.38652344 -101.31538086 268.63242187 -102.08154297 267.85546875 C-103.79419737 265.98303009 -103.79419737 265.98303009 -105.9609375 266.203125 Z M-25.18579102 268.31445312 C-26.15637744 269.28519877 -27.12419526 270.25871721 -28.08984375 271.234375 C-28.59893784 271.74488403 -29.10803192 272.25539307 -29.6325531 272.78137207 C-31.26519852 274.41963505 -32.89434132 276.06133332 -34.5234375 277.703125 C-35.62672491 278.81142515 -36.73023757 279.91950111 -37.83398438 281.02734375 C-40.54559369 283.75000536 -43.25406564 286.4757537 -45.9609375 289.203125 C-40.92719307 290.88103981 -36.00455216 289.0567914 -30.8984375 288.015625 C-29.80337891 287.80615234 -28.70832031 287.59667969 -27.58007812 287.38085938 C-20.68542955 285.99700198 -14.38040796 284.0786353 -7.9609375 281.203125 C-12.35262257 275.93310292 -16.9035754 270.85010449 -21.9609375 266.203125 C-23.35124136 266.08839864 -23.35124136 266.08839864 -25.18579102 268.31445312 Z M-178.9609375 272.203125 C-180.2809375 280.123125 -181.6009375 288.043125 -182.9609375 296.203125 C-178.23010425 292.14812508 -174.69389507 288.95416191 -170.9609375 284.203125 C-172.10228077 282.20055926 -173.24912383 280.20112703 -174.3984375 278.203125 C-175.35556641 276.5325 -175.35556641 276.5325 -176.33203125 274.828125 C-176.86957031 273.961875 -177.40710938 273.095625 -177.9609375 272.203125 C-178.2909375 272.203125 -178.6209375 272.203125 -178.9609375 272.203125 Z M-135.9609375 320.203125 C-139.5909375 323.833125 -143.2209375 327.463125 -146.9609375 331.203125 C-144.2766282 332.54527965 -142.88631759 331.9820764 -139.953125 331.42578125 C-138.96699219 331.24208984 -137.98085937 331.05839844 -136.96484375 330.86914062 C-135.93230469 330.66998047 -134.89976562 330.47082031 -133.8359375 330.265625 C-132.27552734 329.97268555 -132.27552734 329.97268555 -130.68359375 329.67382812 C-128.10820492 329.18946601 -125.53413184 328.69899112 -122.9609375 328.203125 C-125.78451108 326.04897799 -128.58911849 324.21426182 -131.7109375 322.515625 C-133.1134375 321.7525 -134.5159375 320.989375 -135.9609375 320.203125 Z " fill="#010101" transform="translate(362.9609375,-0.203125)"/>
<path d="M0 0 C2.7532964 2.204152 5.40547436 4.47748984 8.02734375 6.8359375 C9.08888672 7.77373047 9.08888672 7.77373047 10.171875 8.73046875 C26.83549441 24.34234098 38.25796733 49.35446092 39.11621094 72.20166016 C40.12825259 116.75637903 24.99872789 159.00124857 -5.85546875 191.83984375 C-7.54041915 193.52844123 -9.24795484 195.18807922 -10.97265625 196.8359375 C-11.77703125 197.6403125 -12.58140625 198.4446875 -13.41015625 199.2734375 C-14.25578125 200.1190625 -15.10140625 200.9646875 -15.97265625 201.8359375 C-16.47539062 202.38507813 -16.978125 202.93421875 -17.49609375 203.5 C-33.72794562 220.72419216 -55.92343323 232.82646455 -77.97265625 240.8359375 C-78.61396484 241.07393066 -79.25527344 241.31192383 -79.91601562 241.55712891 C-92.88242457 246.32535727 -106.15200132 249.30313188 -119.97265625 249.8359375 C-120.66875 249.86316895 -121.36484375 249.89040039 -122.08203125 249.91845703 C-133.44946983 250.30268805 -143.91521 249.48834672 -154.97265625 246.8359375 C-156.14183594 246.56910156 -157.31101562 246.30226563 -158.515625 246.02734375 C-181.95519687 240.06813056 -202.20106768 225.16833388 -214.94091797 204.59082031 C-225.31652221 186.9429634 -230.40094121 167.31810894 -230.22265625 146.8984375 C-230.21443848 145.74964111 -230.2062207 144.60084473 -230.19775391 143.41723633 C-229.68485883 104.64402339 -210.43643982 64.29252966 -183.22265625 36.9609375 C-182.14279526 35.9156716 -181.05984308 34.87358164 -179.97265625 33.8359375 C-179.16828125 33.0315625 -178.36390625 32.2271875 -177.53515625 31.3984375 C-176.68953125 30.5528125 -175.84390625 29.7071875 -174.97265625 28.8359375 C-174.45832031 28.27519531 -173.94398438 27.71445313 -173.4140625 27.13671875 C-131.70991304 -17.07864832 -51.72223102 -37.65324045 0 0 Z M-82.09765625 -2.0390625 C-82.89429688 -1.90508057 -83.6909375 -1.77109863 -84.51171875 -1.63305664 C-90.11373957 -0.6308755 -95.54034916 0.7056257 -100.97265625 2.3984375 C-101.64828613 2.60807129 -102.32391602 2.81770508 -103.02001953 3.03369141 C-105.91556701 3.98142033 -107.78891049 4.65219174 -109.97265625 6.8359375 C-105.35265625 11.4559375 -100.73265625 16.0759375 -95.97265625 20.8359375 C-90.10715889 15.81827892 -90.10715889 15.81827892 -84.5703125 10.53125 C-83.82587891 9.78359375 -83.08144531 9.0359375 -82.31445312 8.265625 C-81.56228516 7.50507812 -80.81011719 6.74453125 -80.03515625 5.9609375 C-79.25591797 5.1771875 -78.47667969 4.3934375 -77.67382812 3.5859375 C-75.7711154 1.67155169 -73.87079454 -0.24514284 -71.97265625 -2.1640625 C-75.23808857 -3.79677866 -78.6147899 -2.62975144 -82.09765625 -2.0390625 Z M-30.97265625 2.8359375 C-25.70164211 9.24663037 -19.88137473 15.02184262 -13.97265625 20.8359375 C-10.60545238 19.44261176 -8.98670385 17.8570089 -6.97265625 14.8359375 C-17.94261628 6.29762471 -17.94261628 6.29762471 -30.97265625 2.8359375 Z M-57.65649414 6.40625 C-58.83866842 7.58858358 -60.01807164 8.77369165 -61.1953125 9.9609375 C-61.81538681 10.58242676 -62.43546112 11.20391602 -63.07432556 11.84423828 C-65.0636164 13.8391481 -67.04941126 15.83749868 -69.03515625 17.8359375 C-70.37932926 19.18512306 -71.72372731 20.53408445 -73.06835938 21.8828125 C-76.37241332 25.19792062 -79.67333491 28.51611956 -82.97265625 31.8359375 C-81.3348758 36.03219659 -78.23942443 38.82270535 -75.08984375 41.9140625 C-74.51557648 42.48549988 -73.9413092 43.05693726 -73.34963989 43.64569092 C-71.52029815 45.46386695 -69.68411432 47.27495242 -67.84765625 49.0859375 C-66.60370851 50.31985079 -65.36021355 51.55422072 -64.1171875 52.7890625 C-61.07423258 55.81000493 -58.02512371 58.82460842 -54.97265625 61.8359375 C-50.77639716 60.19815705 -47.9858884 57.10270568 -44.89453125 53.953125 C-44.03737518 53.09172409 -44.03737518 53.09172409 -43.16290283 52.21292114 C-41.3447268 50.3835794 -39.53364133 48.54739557 -37.72265625 46.7109375 C-36.48874296 45.46698976 -35.25437303 44.2234948 -34.01953125 42.98046875 C-30.99858882 39.93751383 -27.98398533 36.88840496 -24.97265625 33.8359375 C-30.02024052 27.68991521 -35.56824586 22.08722013 -41.19702148 16.48120117 C-42.8024614 14.88119088 -44.40239933 13.2758144 -46.00195312 11.66992188 C-47.01921016 10.65332444 -48.03677672 9.6370366 -49.0546875 8.62109375 C-50.43491089 7.24256226 -50.43491089 7.24256226 -51.84301758 5.83618164 C-54.6733846 3.08268343 -54.6733846 3.08268343 -57.65649414 6.40625 Z M-160.97265625 36.8359375 C-159.40982643 40.60197619 -157.06630875 42.97232901 -154.18359375 45.8203125 C-153.7203067 46.28076965 -153.25701965 46.74122681 -152.7796936 47.21563721 C-151.30699727 48.67718828 -149.82748222 50.13160918 -148.34765625 51.5859375 C-147.34459303 52.57896361 -146.34198368 53.57244839 -145.33984375 54.56640625 C-142.8893479 56.99491691 -140.43268955 59.41708425 -137.97265625 61.8359375 C-133.77639716 60.19815705 -130.9858884 57.10270568 -127.89453125 53.953125 C-127.03737518 53.09172409 -127.03737518 53.09172409 -126.16290283 52.21292114 C-124.3447268 50.3835794 -122.53364133 48.54739557 -120.72265625 46.7109375 C-119.48874296 45.46698976 -118.25437303 44.2234948 -117.01953125 42.98046875 C-113.99858882 39.93751383 -110.98398533 36.88840496 -107.97265625 33.8359375 C-109.3932814 30.6090377 -111.11511066 28.43651238 -113.59765625 25.9453125 C-114.3040625 25.23632812 -115.01046875 24.52734375 -115.73828125 23.796875 C-116.84429687 22.70246094 -116.84429687 22.70246094 -117.97265625 21.5859375 C-118.71 20.84085938 -119.44734375 20.09578125 -120.20703125 19.328125 C-120.9134375 18.62429687 -121.61984375 17.92046875 -122.34765625 17.1953125 C-123.31832031 16.22803223 -123.31832031 16.22803223 -124.30859375 15.24121094 C-131.15298437 9.46123552 -155.07508928 32.07470328 -160.97265625 36.8359375 Z M1.46484375 29.3359375 C0.25828125 30.5734375 0.25828125 30.5734375 -0.97265625 31.8359375 C0.45380155 35.0946011 2.19438537 37.2384229 4.72265625 39.7265625 C5.43808594 40.43554688 6.15351563 41.14453125 6.890625 41.875 C8.01017578 42.96941406 8.01017578 42.96941406 9.15234375 44.0859375 C9.90644531 44.83101562 10.66054688 45.57609375 11.4375 46.34375 C13.29635147 48.1790717 15.1597138 50.0095566 17.02734375 51.8359375 C17.35734375 51.1759375 17.68734375 50.5159375 18.02734375 49.8359375 C16.89888756 47.19988772 15.71044355 44.69349482 14.40234375 42.1484375 C14.05816406 41.45298828 13.71398437 40.75753906 13.359375 40.04101562 C10.96212442 35.30401309 8.26306437 31.04900035 5.02734375 26.8359375 C3.54997393 26.71955019 3.54997393 26.71955019 1.46484375 29.3359375 Z M-98.74829102 47.49804688 C-99.9727829 48.72269807 -101.19450333 49.95012402 -102.4140625 51.1796875 C-103.05633286 51.8233728 -103.69860321 52.46705811 -104.3603363 53.13024902 C-106.42095637 55.19648829 -108.4780815 57.26616919 -110.53515625 59.3359375 C-111.92750637 60.73330014 -113.3200815 62.13043861 -114.71289062 63.52734375 C-118.13543363 66.96094123 -121.55484507 70.39763018 -124.97265625 73.8359375 C-121.26250098 78.2625446 -117.45117332 82.47808626 -113.35546875 86.55078125 C-112.8534494 87.05138565 -112.35143005 87.55199005 -111.834198 88.06776428 C-110.25771954 89.63872348 -108.67777052 91.20613627 -107.09765625 92.7734375 C-106.01669351 93.84937477 -104.93596242 94.92554481 -103.85546875 96.00195312 C-101.23052984 98.61597042 -98.60246997 101.22682346 -95.97265625 103.8359375 C-89.231852 98.30943416 -83.16554335 92.14144191 -77.03515625 85.9609375 C-75.95921898 84.87997476 -74.88304894 83.79924367 -73.80664062 82.71875 C-71.19262333 80.09381109 -68.58177029 77.46575122 -65.97265625 74.8359375 C-71.02024052 68.68991521 -76.56824586 63.08722013 -82.19702148 57.48120117 C-83.8024614 55.88119088 -85.40239933 54.2758144 -87.00195312 52.66992188 C-88.01921016 51.65332444 -89.03677672 50.6370366 -90.0546875 49.62109375 C-91.43491089 48.24256226 -91.43491089 48.24256226 -92.84301758 46.83618164 C-95.70442909 44.0726414 -95.70442909 44.0726414 -98.74829102 47.49804688 Z M-16.65649414 47.40625 C-17.83866842 48.58858358 -19.01807164 49.77369165 -20.1953125 50.9609375 C-20.81538681 51.58242676 -21.43546112 52.20391602 -22.07432556 52.84423828 C-24.0636164 54.8391481 -26.04941126 56.83749868 -28.03515625 58.8359375 C-29.37932926 60.18512306 -30.72372731 61.53408445 -32.06835938 62.8828125 C-35.37241332 66.19792062 -38.67333491 69.51611956 -41.97265625 72.8359375 C-40.3348758 77.03219659 -37.23942443 79.82270535 -34.08984375 82.9140625 C-33.51557648 83.48549988 -32.9413092 84.05693726 -32.34963989 84.64569092 C-30.52029815 86.46386695 -28.68411432 88.27495242 -26.84765625 90.0859375 C-25.60370851 91.31985079 -24.36021355 92.55422072 -23.1171875 93.7890625 C-20.07423258 96.81000493 -17.02512371 99.82460842 -13.97265625 102.8359375 C-9.77639716 101.19815705 -6.9858884 98.10270568 -3.89453125 94.953125 C-3.03737518 94.09172409 -3.03737518 94.09172409 -2.16290283 93.21292114 C-0.3447268 91.3835794 1.46635867 89.54739557 3.27734375 87.7109375 C4.51125704 86.46698976 5.74562697 85.2234948 6.98046875 83.98046875 C10.00141118 80.93751383 13.01601467 77.88840496 16.02734375 74.8359375 C10.97975948 68.68991521 5.43175414 63.08722013 -0.19702148 57.48120117 C-1.8024614 55.88119088 -3.40239933 54.2758144 -5.00195312 52.66992188 C-6.01921016 51.65332444 -7.03677672 50.6370366 -8.0546875 49.62109375 C-9.43491089 48.24256226 -9.43491089 48.24256226 -10.84301758 46.83618164 C-13.6733846 44.08268343 -13.6733846 44.08268343 -16.65649414 47.40625 Z M-173.97265625 49.8359375 C-175.73138588 51.81756168 -177.36004178 53.80190002 -178.97265625 55.8984375 C-179.45597412 56.52169922 -179.93929199 57.14496094 -180.43725586 57.78710938 C-183.94819727 62.37161612 -187.30041993 67.05292564 -190.53515625 71.8359375 C-190.95216797 72.44574463 -191.36917969 73.05555176 -191.79882812 73.68383789 C-194.29981775 77.45761557 -195.49626256 80.40675643 -196.97265625 84.8359375 C-191.03265625 90.7759375 -185.09265625 96.7159375 -178.97265625 102.8359375 C-174.80014315 100.74968095 -172.10528264 98.22434863 -168.89453125 94.953125 C-168.32309387 94.37885773 -167.75165649 93.80459045 -167.16290283 93.21292114 C-165.3447268 91.3835794 -163.53364133 89.54739557 -161.72265625 87.7109375 C-160.48874296 86.46698976 -159.25437303 85.2234948 -158.01953125 83.98046875 C-154.99858882 80.93751383 -151.98398533 77.88840496 -148.97265625 74.8359375 C-150.53360694 71.09787139 -152.84694771 68.70351209 -155.69140625 65.8515625 C-156.62339844 64.91699219 -157.55539062 63.98242188 -158.515625 63.01953125 C-159.0007959 62.5385498 -159.4859668 62.05756836 -159.98583984 61.56201172 C-161.47471964 60.08388902 -162.95257276 58.59533839 -164.4296875 57.10546875 C-165.36167969 56.17605469 -166.29367187 55.24664062 -167.25390625 54.2890625 C-168.5387793 53.00757324 -168.5387793 53.00757324 -169.84960938 51.70019531 C-171.75223231 49.61599584 -171.75223231 49.61599584 -173.97265625 49.8359375 Z M-139.74829102 88.49804688 C-140.9727829 89.72269807 -142.19450333 90.95012402 -143.4140625 92.1796875 C-144.05633286 92.8233728 -144.69860321 93.46705811 -145.3603363 94.13024902 C-147.42095637 96.19648829 -149.4780815 98.26616919 -151.53515625 100.3359375 C-152.92750637 101.73330014 -154.3200815 103.13043861 -155.71289062 104.52734375 C-159.13543363 107.96094123 -162.55484507 111.39763018 -165.97265625 114.8359375 C-162.26250098 119.2625446 -158.45117332 123.47808626 -154.35546875 127.55078125 C-153.8534494 128.05138565 -153.35143005 128.55199005 -152.834198 129.06776428 C-151.25771954 130.63872348 -149.67777052 132.20613627 -148.09765625 133.7734375 C-147.01669351 134.84937477 -145.93596242 135.92554481 -144.85546875 137.00195312 C-142.23052984 139.61597042 -139.60246997 142.22682346 -136.97265625 144.8359375 C-130.231852 139.30943416 -124.16554335 133.14144191 -118.03515625 126.9609375 C-116.95921898 125.87997476 -115.88304894 124.79924367 -114.80664062 123.71875 C-112.19262333 121.09381109 -109.58177029 118.46575122 -106.97265625 115.8359375 C-112.02024052 109.68991521 -117.56824586 104.08722013 -123.19702148 98.48120117 C-124.8024614 96.88119088 -126.40239933 95.2758144 -128.00195312 93.66992188 C-129.01921016 92.65332444 -130.03677672 91.6370366 -131.0546875 90.62109375 C-132.43491089 89.24256226 -132.43491089 89.24256226 -133.84301758 87.83618164 C-136.70442909 85.0726414 -136.70442909 85.0726414 -139.74829102 88.49804688 Z M-57.74829102 88.49804688 C-58.9727829 89.72269807 -60.19450333 90.95012402 -61.4140625 92.1796875 C-62.05633286 92.8233728 -62.69860321 93.46705811 -63.3603363 94.13024902 C-65.42095637 96.19648829 -67.4780815 98.26616919 -69.53515625 100.3359375 C-70.92750637 101.73330014 -72.3200815 103.13043861 -73.71289062 104.52734375 C-77.13543363 107.96094123 -80.55484507 111.39763018 -83.97265625 114.8359375 C-80.26250098 119.2625446 -76.45117332 123.47808626 -72.35546875 127.55078125 C-71.8534494 128.05138565 -71.35143005 128.55199005 -70.834198 129.06776428 C-69.25771954 130.63872348 -67.67777052 132.20613627 -66.09765625 133.7734375 C-65.01669351 134.84937477 -63.93596242 135.92554481 -62.85546875 137.00195312 C-60.23052984 139.61597042 -57.60246997 142.22682346 -54.97265625 144.8359375 C-48.231852 139.30943416 -42.16554335 133.14144191 -36.03515625 126.9609375 C-34.95921898 125.87997476 -33.88304894 124.79924367 -32.80664062 123.71875 C-30.19262333 121.09381109 -27.58177029 118.46575122 -24.97265625 115.8359375 C-30.02024052 109.68991521 -35.56824586 104.08722013 -41.19702148 98.48120117 C-42.8024614 96.88119088 -44.40239933 95.2758144 -46.00195312 93.66992188 C-47.01921016 92.65332444 -48.03677672 91.6370366 -49.0546875 90.62109375 C-50.43491089 89.24256226 -50.43491089 89.24256226 -51.84301758 87.83618164 C-54.70442909 85.0726414 -54.70442909 85.0726414 -57.74829102 88.49804688 Z M19.80249023 93.94726562 C18.83190381 94.91801127 17.86408599 95.89152971 16.8984375 96.8671875 C16.38934341 97.37769653 15.88024933 97.88820557 15.35572815 98.41418457 C13.72308273 100.05244755 12.09393993 101.69414582 10.46484375 103.3359375 C9.36155634 104.44423765 8.25804368 105.55231361 7.15429688 106.66015625 C4.44268756 109.38281786 1.73421561 112.1085662 -0.97265625 114.8359375 C2.3585099 118.78967937 5.71162931 122.64635607 9.40234375 126.2734375 C10.43488281 127.29244141 10.43488281 127.29244141 11.48828125 128.33203125 C11.99617187 128.82832031 12.5040625 129.32460937 13.02734375 129.8359375 C16.4857332 126.09523055 17.37622336 121.8326525 18.58984375 117.0234375 C18.91408325 115.7698645 18.91408325 115.7698645 19.24487305 114.4909668 C21.11821493 106.9926113 22.25748438 99.52304072 23.02734375 91.8359375 C21.63703989 91.72121114 21.63703989 91.72121114 19.80249023 93.94726562 Z M-204.97265625 100.8359375 C-208.32664382 108.32359079 -210.24681514 115.73146349 -211.78515625 123.7734375 C-212.01396484 124.89556641 -212.24277344 126.01769531 -212.47851562 127.17382812 C-213.84887083 133.04712083 -213.84887083 133.04712083 -212.97265625 138.8359375 C-205.38265625 131.2459375 -197.79265625 123.6559375 -189.97265625 115.8359375 C-194.9948166 109.95970538 -194.9948166 109.95970538 -200.28515625 104.3984375 C-200.96191406 103.71910156 -201.63867188 103.03976563 -202.3359375 102.33984375 C-203.72492444 100.72317091 -203.72492444 100.72317091 -204.97265625 100.8359375 Z M-98.74829102 129.49804688 C-99.9727829 130.72269807 -101.19450333 131.95012402 -102.4140625 133.1796875 C-103.05633286 133.8233728 -103.69860321 134.46705811 -104.3603363 135.13024902 C-106.42095637 137.19648829 -108.4780815 139.26616919 -110.53515625 141.3359375 C-111.92750637 142.73330014 -113.3200815 144.13043861 -114.71289062 145.52734375 C-118.13543363 148.96094123 -121.55484507 152.39763018 -124.97265625 155.8359375 C-121.26250098 160.2625446 -117.45117332 164.47808626 -113.35546875 168.55078125 C-112.8534494 169.05138565 -112.35143005 169.55199005 -111.834198 170.06776428 C-110.25771954 171.63872348 -108.67777052 173.20613627 -107.09765625 174.7734375 C-106.01669351 175.84937477 -104.93596242 176.92554481 -103.85546875 178.00195312 C-101.23052984 180.61597042 -98.60246997 183.22682346 -95.97265625 185.8359375 C-89.231852 180.30943416 -83.16554335 174.14144191 -77.03515625 167.9609375 C-75.95921898 166.87997476 -74.88304894 165.79924367 -73.80664062 164.71875 C-71.19262333 162.09381109 -68.58177029 159.46575122 -65.97265625 156.8359375 C-71.02024052 150.68991521 -76.56824586 145.08722013 -82.19702148 139.48120117 C-83.8024614 137.88119088 -85.40239933 136.2758144 -87.00195312 134.66992188 C-88.01921016 133.65332444 -89.03677672 132.6370366 -90.0546875 131.62109375 C-91.43491089 130.24256226 -91.43491089 130.24256226 -92.84301758 128.83618164 C-95.70442909 126.0726414 -95.70442909 126.0726414 -98.74829102 129.49804688 Z M-181.77001953 130.40625 C-182.94947854 131.58602693 -184.1234182 132.77133729 -185.29296875 133.9609375 C-185.91162811 134.58242676 -186.53028748 135.20391602 -187.16769409 135.84423828 C-189.14907356 137.83684273 -191.12339974 139.83627783 -193.09765625 141.8359375 C-194.43704227 143.18535032 -195.77688026 144.53431468 -197.1171875 145.8828125 C-200.40761735 149.19533345 -203.69173631 152.51399818 -206.97265625 155.8359375 C-203.26250098 160.2625446 -199.45117332 164.47808626 -195.35546875 168.55078125 C-194.8534494 169.05138565 -194.35143005 169.55199005 -193.834198 170.06776428 C-192.25771954 171.63872348 -190.67777052 173.20613627 -189.09765625 174.7734375 C-188.01669351 175.84937477 -186.93596242 176.92554481 -185.85546875 178.00195312 C-183.23052984 180.61597042 -180.60246997 183.22682346 -177.97265625 185.8359375 C-171.41888528 180.44952826 -165.5001899 174.47708623 -159.53515625 168.4609375 C-158.50739642 167.42815155 -157.4794034 166.39559759 -156.45117188 165.36328125 C-153.95564027 162.85683463 -151.46327543 160.3472667 -148.97265625 157.8359375 C-150.61232028 153.66384758 -153.66537154 150.85472121 -156.78515625 147.7578125 C-157.35468018 147.18637512 -157.9242041 146.61493774 -158.51098633 146.02618408 C-159.71222305 144.82358961 -160.91597622 143.62350416 -162.12207031 142.42578125 C-163.9730658 140.58553033 -165.81311071 138.73481117 -167.65234375 136.8828125 C-168.82097349 135.71550366 -169.99022309 134.54881499 -171.16015625 133.3828125 C-171.71227783 132.82664246 -172.26439941 132.27047241 -172.83325195 131.69744873 C-177.05089467 127.15241906 -177.05089467 127.15241906 -181.77001953 130.40625 Z M-16.77001953 130.40625 C-17.94947854 131.58602693 -19.1234182 132.77133729 -20.29296875 133.9609375 C-20.91162811 134.58242676 -21.53028748 135.20391602 -22.16769409 135.84423828 C-24.14907356 137.83684273 -26.12339974 139.83627783 -28.09765625 141.8359375 C-29.43704227 143.18535032 -30.77688026 144.53431468 -32.1171875 145.8828125 C-35.40761735 149.19533345 -38.69173631 152.51399818 -41.97265625 155.8359375 C-40.41170556 159.57400361 -38.09836479 161.96836291 -35.25390625 164.8203125 C-34.32191406 165.75488281 -33.38992188 166.68945312 -32.4296875 167.65234375 C-31.70193115 168.37381592 -31.70193115 168.37381592 -30.95947266 169.10986328 C-29.47059286 170.58798598 -27.99273974 172.07653661 -26.515625 173.56640625 C-25.11763672 174.96052734 -25.11763672 174.96052734 -23.69140625 176.3828125 C-22.4065332 177.66430176 -22.4065332 177.66430176 -21.09570312 178.97167969 C-19.19308019 181.05587916 -19.19308019 181.05587916 -16.97265625 180.8359375 C-15.21392662 178.85431332 -13.58527072 176.86997498 -11.97265625 174.7734375 C-11.48933838 174.15017578 -11.00602051 173.52691406 -10.50805664 172.88476562 C-6.99711523 168.30025888 -3.64489257 163.61894936 -0.41015625 158.8359375 C0.00685547 158.22613037 0.42386719 157.61632324 0.85351562 156.98803711 C3.23859001 153.38916554 4.85580022 149.99016754 6.02734375 145.8359375 C3.07708649 142.82790178 0.11584706 139.8309196 -2.84765625 136.8359375 C-3.68941406 135.97742188 -4.53117187 135.11890625 -5.3984375 134.234375 C-6.20410156 133.42226562 -7.00976562 132.61015625 -7.83984375 131.7734375 C-8.95528564 130.64228516 -8.95528564 130.64228516 -10.09326172 129.48828125 C-13.22796265 126.73228542 -13.68513275 127.57175113 -16.77001953 130.40625 Z M-140.77001953 171.40625 C-141.94947854 172.58602693 -143.1234182 173.77133729 -144.29296875 174.9609375 C-144.91162811 175.58242676 -145.53028748 176.20391602 -146.16769409 176.84423828 C-148.14907356 178.83684273 -150.12339974 180.83627783 -152.09765625 182.8359375 C-153.43704227 184.18535032 -154.77688026 185.53431468 -156.1171875 186.8828125 C-159.40761735 190.19533345 -162.69173631 193.51399818 -165.97265625 196.8359375 C-162.26250098 201.2625446 -158.45117332 205.47808626 -154.35546875 209.55078125 C-153.8534494 210.05138565 -153.35143005 210.55199005 -152.834198 211.06776428 C-151.25771954 212.63872348 -149.67777052 214.20613627 -148.09765625 215.7734375 C-147.01669351 216.84937477 -145.93596242 217.92554481 -144.85546875 219.00195312 C-142.23052984 221.61597042 -139.60246997 224.22682346 -136.97265625 226.8359375 C-130.41888528 221.44952826 -124.5001899 215.47708623 -118.53515625 209.4609375 C-117.50739642 208.42815155 -116.4794034 207.39559759 -115.45117188 206.36328125 C-112.95564027 203.85683463 -110.46327543 201.3472667 -107.97265625 198.8359375 C-109.61232028 194.66384758 -112.66537154 191.85472121 -115.78515625 188.7578125 C-116.35468018 188.18637512 -116.9242041 187.61493774 -117.51098633 187.02618408 C-118.71222305 185.82358961 -119.91597622 184.62350416 -121.12207031 183.42578125 C-122.9730658 181.58553033 -124.81311071 179.73481117 -126.65234375 177.8828125 C-127.82097349 176.71550366 -128.99022309 175.54881499 -130.16015625 174.3828125 C-130.71227783 173.82664246 -131.26439941 173.27047241 -131.83325195 172.69744873 C-136.05089467 168.15241906 -136.05089467 168.15241906 -140.77001953 171.40625 Z M-57.77001953 171.40625 C-58.94947854 172.58602693 -60.1234182 173.77133729 -61.29296875 174.9609375 C-61.91162811 175.58242676 -62.53028748 176.20391602 -63.16769409 176.84423828 C-65.14907356 178.83684273 -67.12339974 180.83627783 -69.09765625 182.8359375 C-70.43704227 184.18535032 -71.77688026 185.53431468 -73.1171875 186.8828125 C-76.40761735 190.19533345 -79.69173631 193.51399818 -82.97265625 196.8359375 C-81.54619845 200.0946011 -79.80561463 202.2384229 -77.27734375 204.7265625 C-76.56191406 205.43554688 -75.84648437 206.14453125 -75.109375 206.875 C-74.36300781 207.60460937 -73.61664063 208.33421875 -72.84765625 209.0859375 C-72.09355469 209.83101562 -71.33945312 210.57609375 -70.5625 211.34375 C-68.70364853 213.1790717 -66.8402862 215.0095566 -64.97265625 216.8359375 C-59.87428024 215.41277119 -56.03335459 213.16486228 -51.72265625 210.2109375 C-50.74075317 209.54759399 -50.74075317 209.54759399 -49.73901367 208.87084961 C-44.99513958 205.62927025 -40.45186711 202.19093232 -36.0234375 198.52734375 C-34.0492623 196.89911925 -32.03120338 195.35545198 -29.97265625 193.8359375 C-31.53360694 190.09787139 -33.84694771 187.70351209 -36.69140625 184.8515625 C-37.62339844 183.91699219 -38.55539062 182.98242188 -39.515625 182.01953125 C-40.0007959 181.5385498 -40.4859668 181.05756836 -40.98583984 180.56201172 C-42.47471964 179.08388902 -43.95257276 177.59533839 -45.4296875 176.10546875 C-46.36167969 175.17605469 -47.29367187 174.24664062 -48.25390625 173.2890625 C-49.5387793 172.00757324 -49.5387793 172.00757324 -50.84960938 170.70019531 C-54.16127054 167.79220949 -54.49160621 168.39393237 -57.77001953 171.40625 Z M-208.97265625 178.8359375 C-206.33512701 188.14486422 -202.16654133 197.17961746 -194.97265625 203.8359375 C-193.32265625 202.1859375 -191.67265625 200.5359375 -189.97265625 198.8359375 C-191.39621125 195.59317023 -193.1273669 193.43500446 -195.6328125 190.9453125 C-196.69918945 189.88183594 -196.69918945 189.88183594 -197.78710938 188.796875 C-198.89989258 187.70246094 -198.89989258 187.70246094 -200.03515625 186.5859375 C-200.78087891 185.84085938 -201.52660156 185.09578125 -202.29492188 184.328125 C-205.22854493 180.77687088 -205.22854493 180.77687088 -208.97265625 178.8359375 Z M-178.97265625 209.8359375 C-180.68701805 211.79520813 -182.35670793 213.79473962 -183.97265625 215.8359375 C-176.8628893 221.26054524 -169.42256081 225.79004167 -160.97265625 228.8359375 C-160.31265625 228.5059375 -159.65265625 228.1759375 -158.97265625 227.8359375 C-161.92291351 224.82790178 -164.88415294 221.8309196 -167.84765625 218.8359375 C-168.68941406 217.97742188 -169.53117187 217.11890625 -170.3984375 216.234375 C-171.20410156 215.42226563 -172.00976562 214.61015625 -172.83984375 213.7734375 C-173.58347168 213.01933594 -174.32709961 212.26523437 -175.09326172 211.48828125 C-176.80591612 209.61584259 -176.80591612 209.61584259 -178.97265625 209.8359375 Z M-98.19750977 211.94726562 C-99.16809619 212.91801127 -100.13591401 213.89152971 -101.1015625 214.8671875 C-101.61065659 215.37769653 -102.11975067 215.88820557 -102.64427185 216.41418457 C-104.27691727 218.05244755 -105.90606007 219.69414582 -107.53515625 221.3359375 C-108.63844366 222.44423765 -109.74195632 223.55231361 -110.84570312 224.66015625 C-113.55731244 227.38281786 -116.26578439 230.1085662 -118.97265625 232.8359375 C-113.93891182 234.51385231 -109.01627091 232.6896039 -103.91015625 231.6484375 C-102.81509766 231.43896484 -101.72003906 231.22949219 -100.59179688 231.01367188 C-93.6971483 229.62981448 -87.39212671 227.7114478 -80.97265625 224.8359375 C-85.36434132 219.56591542 -89.91529415 214.48291699 -94.97265625 209.8359375 C-96.36296011 209.72121114 -96.36296011 209.72121114 -98.19750977 211.94726562 Z " fill="#000000" transform="translate(435.97265625,56.1640625)"/>
<path d="M0 0 C2.35165989 0.01076275 4.70256163 0.0000136 7.05419922 -0.01269531 C15.6401346 -0.02092879 23.79264484 0.44601869 32.22216797 2.26074219 C33.48287109 2.52113281 34.74357422 2.78152344 36.04248047 3.04980469 C67.23024042 10.93890709 93.7778328 30.1279597 110.27685547 57.78808594 C115.13492538 66.46042359 119.13608458 75.23948073 122.03466797 84.76074219 C122.32700317 85.70095215 122.32700317 85.70095215 122.62524414 86.66015625 C126.0014328 98.51029572 126.57527214 110.79730068 126.5378418 123.03979492 C126.53467416 125.19403479 126.55829797 127.34690382 126.58349609 129.50097656 C126.64549297 142.94254814 124.29835799 155.6076021 120.53466797 168.51074219 C120.27975586 169.38641846 120.02484375 170.26209473 119.76220703 171.16430664 C107.71251165 211.34075514 81.99507727 248.58507797 47.85888672 273.28027344 C46.55371094 274.26060547 46.55371094 274.26060547 45.22216797 275.26074219 C44.44486328 275.82148438 43.66755859 276.38222656 42.86669922 276.95996094 C40.89987649 279.71164404 41.18403617 280.41082251 41.48779297 283.66308594 C41.6727637 287.76523224 41.6727637 287.76523224 39.70849609 289.92529297 C37.52662462 291.40688072 35.32467453 292.63168805 32.97216797 293.82324219 C32.19486328 294.25958984 31.41755859 294.6959375 30.61669922 295.14550781 C26.7446973 297.25359775 24.75135801 298.26074219 20.22216797 298.26074219 C20.22216797 297.60074219 20.22216797 296.94074219 20.22216797 296.26074219 C13.31973618 294.80635736 9.41758927 295.93350717 3.09716797 298.82324219 C-4.26812156 301.97989404 -11.59865346 304.56034459 -19.34033203 306.63574219 C-20.65831787 306.99261108 -20.65831787 306.99261108 -22.00292969 307.35668945 C-24.58649607 308.03215551 -27.17678073 308.65635775 -29.77783203 309.26074219 C-30.5714917 309.45724365 -31.36515137 309.65374512 -32.18286133 309.85620117 C-40.65668415 311.70484095 -49.18774942 311.59799515 -57.81860352 311.57641602 C-60.44281114 311.57326919 -63.06587341 311.5967372 -65.68994141 311.62207031 C-95.82407316 311.73527981 -124.22367593 301.49259431 -146.77783203 281.26074219 C-147.67630859 280.46152344 -148.57478516 279.66230469 -149.50048828 278.83886719 C-172.38575879 257.19159431 -184.61963712 225.31713996 -186.05517578 194.21777344 C-186.48477309 178.60809039 -186.12050157 159.78088147 -179.77783203 145.26074219 C-177.64892578 143.28808594 -177.64892578 143.28808594 -175.21533203 142.19824219 C-161.80918098 135.23172701 -152.10962185 123.23764836 -146.77783203 109.26074219 C-146.20548828 107.90335938 -146.20548828 107.90335938 -145.62158203 106.51855469 C-143.1599107 99.88962546 -142.69159397 94.47033512 -142.76220703 87.44433594 C-142.83718271 72.16804236 -142.83718271 72.16804236 -138.08569336 66.61230469 C-135.97376677 64.52586287 -133.77830001 62.58759703 -131.48046875 60.70849609 C-129.7594195 59.24508599 -128.23002266 57.7034555 -126.68798828 56.05371094 C-110.20041172 38.41669082 -89.55023171 25.39157306 -67.77783203 15.26074219 C-66.58158203 14.70386719 -65.38533203 14.14699219 -64.15283203 13.57324219 C-57.23330476 10.48416751 -50.33066615 8.09155666 -43.01220703 6.13183594 C-40.22944817 5.38237311 -37.51448523 4.53454495 -34.77783203 3.63574219 C-23.38720693 0.26524762 -11.77832704 -0.06399927 0 0 Z M-93.77783203 56.26074219 C-94.65697266 56.93363281 -95.53611328 57.60652344 -96.44189453 58.29980469 C-101.57934994 62.31974713 -106.27429583 66.54719653 -110.77783203 71.26074219 C-115.77783203 76.26074219 -115.77783203 76.26074219 -117.47705078 77.81933594 C-142.26131776 101.1959772 -157.05579485 136.31347077 -162.77783203 169.26074219 C-162.95056641 170.04570068 -163.12330078 170.83065918 -163.30126953 171.6394043 C-168.07168515 197.87913406 -160.67353374 225.98215294 -146.77783203 248.26074219 C-143.97767519 252.12444484 -140.96994098 255.71636315 -137.77783203 259.26074219 C-137.09076172 260.04191406 -136.40369141 260.82308594 -135.69580078 261.62792969 C-119.54613794 278.94612101 -94.10892488 289.19418754 -70.67822266 290.36572266 C-53.67545241 290.9572192 -36.96254828 289.72757968 -20.77783203 284.26074219 C-19.41847492 283.82318661 -18.05909908 283.38568921 -16.69970703 282.94824219 C-7.25995972 279.8344329 1.58234441 275.95767231 10.34179688 271.26660156 C12.11982297 270.31548919 13.91090078 269.3888936 15.70263672 268.46386719 C22.82490472 264.62816935 29.20503464 260.20148988 35.59716797 255.26074219 C36.33435059 254.69145996 37.0715332 254.12217773 37.83105469 253.53564453 C42.99823784 249.44782335 47.64445507 244.99311648 52.22216797 240.26074219 C57.22216797 235.26074219 57.22216797 235.26074219 58.91748047 233.70605469 C77.67769035 216.00917654 89.78965505 191.2854488 98.22216797 167.26074219 C98.52896484 166.44347656 98.83576172 165.62621094 99.15185547 164.78417969 C106.90645184 143.43905359 108.02988584 117.15910697 102.22216797 95.26074219 C101.82191406 93.65392578 101.82191406 93.65392578 101.41357422 92.01464844 C94.86750647 68.24514911 79.46569589 47.82997596 58.22216797 35.26074219 C8.53814758 7.70216639 -50.73697165 23.31744436 -93.77783203 56.26074219 Z " fill="#4375BE" transform="translate(369.77783203125,15.7392578125)"/>
<path d="M0 0 C4.58645358 2.21032863 8.04649828 6.568099 11.61210632 10.14958191 C13.16685332 11.70530444 14.74172234 13.23846362 16.31889343 14.77140808 C17.30782135 15.75513127 18.29549644 16.74011586 19.28178406 17.72648621 C20.63397034 19.06803772 20.63397034 19.06803772 22.01347351 20.43669128 C23.85600281 22.89445496 23.85600281 22.89445496 23.69459629 24.80208206 C22.64511779 27.42063374 21.28060416 28.83886846 19.28103638 30.83018494 C18.51397369 31.60137161 17.74691101 32.37255829 16.956604 33.16711426 C16.10928207 34.00365036 15.26196014 34.84018646 14.38896179 35.70207214 C13.50124084 36.59023117 12.6135199 37.4783902 11.69889832 38.39346313 C9.26562467 40.82759781 6.82320967 43.25236953 4.37906146 45.67557812 C1.82590391 48.20998689 -0.71876529 50.75288905 -3.26434326 53.29490662 C-8.08551894 58.10675655 -12.91429119 62.91090781 -17.74583238 67.71234727 C-23.24621852 73.17920591 -28.73809253 78.65458154 -34.22926438 84.13069296 C-45.52472359 95.39479115 -56.83083677 106.64813351 -68.14399719 117.89445496 C-73.53637038 115.357948 -77.27462966 111.21067743 -81.47285461 107.04606628 C-82.95558969 105.58285052 -84.45827277 104.14231481 -85.96235657 102.70109558 C-86.89499329 101.77877136 -87.82763 100.85644714 -88.78852844 99.90617371 C-89.64809143 99.06530212 -90.50765442 98.22443054 -91.39326477 97.358078 C-93.14399719 94.89445496 -93.14399719 94.89445496 -93.0136261 92.20085144 C-91.99750511 89.50593427 -90.82729431 88.20065899 -88.70649719 86.26945496 C-84.26360451 82.1893661 -84.26360451 82.1893661 -82.95649719 76.39445496 C-82.98746068 72.92235546 -82.98746068 72.92235546 -84.14399719 69.89445496 C-73.08969501 57.12483002 -73.08969501 57.12483002 -68.40571594 56.57023621 C-66.82299156 56.94130556 -65.24746022 57.34525691 -63.68333435 57.78822327 C-61.0482456 58.14665965 -61.0482456 58.14665965 -58.89274597 56.40791321 C-58.12471649 55.66886749 -57.35668701 54.92982178 -56.56538391 54.16838074 C-55.69129883 53.33550537 -54.81721375 52.50263 -53.91664124 51.64451599 C-53.0016687 50.73699585 -52.08669617 49.82947571 -51.14399719 48.89445496 C-50.2365979 47.99805298 -49.32919861 47.101651 -48.39430237 46.17808533 C-45.96007475 43.74459528 -43.54235906 41.29703122 -41.13435745 38.83771896 C-39.00029161 36.66079529 -36.85618054 34.49387181 -34.71279716 32.32612801 C-30.74413055 28.31202627 -26.77995713 24.29367751 -22.83149719 20.25968933 C-20.06208494 17.43105915 -17.28075716 14.61464935 -14.49103928 11.80604935 C-13.43471476 10.73797513 -12.38294288 9.6653784 -11.33586502 8.58823776 C-9.8809891 7.09256279 -8.41145594 5.61294856 -6.93745422 4.13615417 C-6.10601898 3.29059967 -5.27458374 2.44504517 -4.41795349 1.5738678 C-2.14399719 -0.10554504 -2.14399719 -0.10554504 0 0 Z " fill="#556367" transform="translate(109.14399719238281,379.1055450439453)"/>
<path d="M0 0 C0.15855469 0.71542969 0.31710938 1.43085937 0.48046875 2.16796875 C4.89438455 21.01855944 12.71578065 37.73122068 29.3125 48.625 C31.19809024 49.76708514 33.09368655 50.89285138 35 52 C35.78117187 52.46535156 36.56234375 52.93070313 37.3671875 53.41015625 C44.78755975 57.49510865 52.79804035 59.17847298 61 61 C59.84812858 74.31213431 52.81923743 85.37648788 42.7265625 93.92578125 C35.52758676 99.36578395 26.26175275 104.5649498 17 104 C16.70609375 102.42025391 16.70609375 102.42025391 16.40625 100.80859375 C12.8013188 82.85938981 4.87422222 67.99658115 -9.93359375 56.77734375 C-12.57859233 55.04947367 -15.20857401 53.47850953 -18 52 C-18.58523437 51.6788623 -19.17046875 51.35772461 -19.7734375 51.02685547 C-24.85831657 48.33374347 -29.94263047 46.68912338 -35.5 45.25 C-36.73363281 44.91935547 -36.73363281 44.91935547 -37.9921875 44.58203125 C-39.9927507 44.04699691 -41.99609663 43.52238507 -44 43 C-41.18436714 28.8477401 -35.21475345 17.01755471 -23.35546875 8.484375 C-16.0217704 3.86280722 -8.77240793 -0.1949424 0 0 Z " fill="#E8C100" transform="translate(151,48)"/>
<path d="M0 0 C2.54271428 1.22073808 4.1446524 2.90656184 6.084198 4.94308472 C6.79060425 5.67656128 7.4970105 6.41003784 8.224823 7.16574097 C9.02146362 8.01458862 9.02146362 8.01458862 9.834198 8.88058472 C5.24570508 14.38622541 0.36814617 19.48358413 -4.70974731 24.53805542 C-5.54621796 25.37467209 -6.3826886 26.21128876 -7.24450684 27.07325745 C-9.99194819 29.82000582 -12.74290815 32.56320107 -15.493927 35.30636597 C-17.40919948 37.21921321 -19.32371605 39.13281633 -21.23825073 41.04640198 C-25.75273929 45.55779277 -30.26976832 50.06663085 -34.7877357 54.57453746 C-39.92662017 59.70222681 -45.06265109 64.83277032 -50.19844675 69.96355307 C-60.32717176 80.08227477 -70.45911558 90.19776664 -80.59337234 100.31094837 C-81.78477452 101.5002341 -82.97545758 102.69024029 -84.165802 103.88058472 C-85.70419466 102.50412813 -87.22110781 101.10363439 -88.728302 99.69308472 C-89.57521606 98.91578003 -90.42213013 98.13847534 -91.29470825 97.33761597 C-93.165802 94.88058472 -93.165802 94.88058472 -93.1579895 92.30636597 C-92.04736993 89.59103228 -90.88792547 88.22214413 -88.728302 86.25558472 C-84.28540932 82.17549586 -84.28540932 82.17549586 -82.978302 76.38058472 C-83.00926549 72.90848522 -83.00926549 72.90848522 -84.165802 69.88058472 C-73.11149982 57.11095978 -73.11149982 57.11095978 -68.42752075 56.55636597 C-66.84479637 56.92743532 -65.26926503 57.33138667 -63.70513916 57.77435303 C-61.07005041 58.13278941 -61.07005041 58.13278941 -58.91455078 56.39404297 C-58.1465213 55.65499725 -57.37849182 54.91595154 -56.58718872 54.1545105 C-55.71310364 53.32163513 -54.83901855 52.48875977 -53.93844604 51.63064575 C-53.02347351 50.72312561 -52.10850098 49.81560547 -51.165802 48.88058472 C-50.25840271 47.98418274 -49.35100342 47.08778076 -48.41610718 46.16421509 C-45.98187956 43.73072504 -43.56416387 41.28316098 -41.15616226 38.82384872 C-39.02209641 36.64692505 -36.87798535 34.48000157 -34.73460197 32.31225777 C-30.76593536 28.29815603 -26.80176194 24.27980727 -22.853302 20.24581909 C-20.08388975 17.41718891 -17.30256197 14.60077911 -14.51284409 11.79217911 C-13.45651957 10.72410489 -12.40474769 9.65150816 -11.35766983 8.57436752 C-9.90279391 7.07869255 -8.43326075 5.59907832 -6.95925903 4.12228394 C-6.12782379 3.27672943 -5.29638855 2.43117493 -4.4397583 1.55999756 C-2.165802 -0.11941528 -2.165802 -0.11941528 0 0 Z " fill="#3E4E51" transform="translate(109.16580200195313,379.1194152832031)"/>
<path d="M0 0 C1.65 1.65 3.3 3.3 5 5 C6.25652533 6.12042201 7.52542005 7.22731495 8.8125 8.3125 C9.71935547 9.08013672 9.71935547 9.08013672 10.64453125 9.86328125 C11.09183594 10.23839844 11.53914063 10.61351562 12 11 C11.41630012 14.30501712 10.43725079 15.93552713 8.07041931 18.29034424 C7.44639725 18.9184903 6.82237518 19.54663635 6.17944336 20.19381714 C5.49108398 20.87139069 4.80272461 21.54896423 4.09350586 22.24707031 C3.37159561 22.96941864 2.64968536 23.69176697 1.90589905 24.43600464 C-0.48407783 26.82389008 -2.88450847 29.20097169 -5.28515625 31.578125 C-6.94347781 33.2308519 -8.60113864 34.88424202 -10.25816345 36.53826904 C-14.62293905 40.89158576 -18.99664864 45.23581874 -23.37225342 49.57824707 C-27.8349597 54.01027522 -32.28919424 58.4507993 -36.74414062 62.890625 C-45.4878039 71.60210567 -54.24092494 80.3040174 -63 89 C-64.04796218 88.15356901 -65.08792692 87.29723808 -66.125 86.4375 C-66.99511719 85.72400391 -66.99511719 85.72400391 -67.8828125 84.99609375 C-70.82159088 82.22540048 -73.37148276 79.06660344 -76 76 C-50.92 50.92 -25.84 25.84 0 0 Z " fill="#F1AC48" transform="translate(202,297)"/>
<path d="M0 0 C1.01044183 3.15020101 1.45613727 4.7814134 1 8 C-0.69140625 10.453125 -0.69140625 10.453125 -3 13.0625 C-12.85114917 24.21792905 -16.13677976 36.50237205 -18 51 C-18.82242188 50.72285156 -19.64484375 50.44570312 -20.4921875 50.16015625 C-24.3585511 48.88141461 -28.23826401 47.65255569 -32.125 46.4375 C-32.82753906 46.21642578 -33.53007813 45.99535156 -34.25390625 45.76757812 C-37.48376129 44.75710363 -40.70104898 43.76063897 -44 43 C-41.18436714 28.8477401 -35.21475345 17.01755471 -23.35546875 8.484375 C-16.0217704 3.86280722 -8.77240793 -0.1949424 0 0 Z " fill="#C6A101" transform="translate(151,48)"/>
<path d="M0 0 C15.15293299 1.5152933 26.43407787 8.46979002 36 20 C41.52544512 27.40571141 46 36.640632 46 46 C32.88962814 44.68896281 20.43077534 38.76428883 11.984375 28.56640625 C5.22427061 19.74071441 0.55163022 11.21648114 0 0 Z " fill="#C6A001" transform="translate(107,107)"/>
<path d="M0 0 C10.89466702 1.76169084 19.44937781 4.96735343 28 12 C28.86625 12.61875 29.7325 13.2375 30.625 13.875 C38.40421576 20.83535095 43.807404 30.83432762 46 41 C46.125 43.9375 46.125 43.9375 46 46 C33.93059516 45.79190681 23.60255897 39.46497507 15.1171875 31.2578125 C6.2439129 21.7951691 2.54756804 12.66064118 0 0 Z " fill="#E6BF00" transform="translate(166,47)"/>
<path d="M0 0 C0.78334717 0.78785889 1.56669434 1.57571777 2.3737793 2.38745117 C4.46324851 4.4660428 6.56215088 6.41514682 8.8125 8.3125 C9.71935547 9.08013672 9.71935547 9.08013672 10.64453125 9.86328125 C11.09183594 10.23839844 11.53914063 10.61351562 12 11 C11.30621489 14.26011642 10.54106009 15.79038253 8 18 C5.11562221 16.70700306 3.12780579 15.34058637 1 13 C-1.80387058 14.27886769 -3.85248535 15.60381048 -6.02459717 17.78408813 C-6.59384415 18.35058578 -7.16309113 18.91708344 -7.74958801 19.50074768 C-8.66776558 20.42971107 -8.66776558 20.42971107 -9.60449219 21.37744141 C-10.25856552 22.03122269 -10.91263885 22.68500397 -11.58653259 23.3585968 C-13.74475514 25.51821138 -15.89580936 27.6848212 -18.046875 29.8515625 C-19.54287809 31.35129616 -21.03932369 32.85058853 -22.53619385 34.34945679 C-26.47300225 38.29389812 -30.40376734 42.24430894 -34.33331299 46.19598389 C-38.34488498 50.22802153 -42.36213094 54.25439714 -46.37890625 58.28125 C-54.25817445 66.18196213 -62.13107125 74.0889909 -70 82 C-71.98 80.35 -73.96 78.7 -76 77 C-71.83174662 72.0278738 -67.49244504 67.35279555 -62.89306641 62.77954102 C-62.20944031 62.09576889 -61.52581421 61.41199677 -60.82147217 60.70750427 C-58.583867 58.47059017 -56.34275155 56.23722911 -54.1015625 54.00390625 C-52.54050184 52.44471263 -50.97966327 50.88529661 -49.41903687 49.32566833 C-45.32779371 45.2382278 -41.23355542 41.1538004 -37.13867188 37.07000732 C-32.9539051 32.8955033 -28.77199759 28.71813708 -24.58984375 24.54101562 C-16.39601449 16.35788389 -8.19901608 8.17793461 0 0 Z " fill="#DC973B" transform="translate(202,297)"/>
<path d="M0 0 C6.13000779 4.37857699 10.89797765 10.35990591 12.66796875 17.8125 C12.77753906 18.534375 12.88710937 19.25625 13 20 C6.86366933 14.58559059 2.8710075 7.61973555 0 0 Z " fill="#DAB500" transform="translate(137,122)"/>
</svg>
